G04 #@! TF.GenerationSoftware,KiCad,Pcbnew,(5.1.2)-1*
G04 #@! TF.CreationDate,2024-04-02T23:01:08+09:00*
G04 #@! TF.ProjectId,uf,75662e6b-6963-4616-945f-706362585858,v1.0*
G04 #@! TF.SameCoordinates,Original*
G04 #@! TF.FileFunction,Legend,Bot*
G04 #@! TF.FilePolarity,Positive*
%FSLAX46Y46*%
G04 Gerber Fmt 4.6, Leading zero omitted, Abs format (unit mm)*
G04 Created by KiCad (PCBNEW (5.1.2)-1) date 2024-04-02 23:01:08*
%MOMM*%
%LPD*%
G04 APERTURE LIST*
%ADD10C,0.150000*%
G04 APERTURE END LIST*
D10*
X147195238Y-122847380D02*
X147195238Y-123656904D01*
X147147619Y-123752142D01*
X147100000Y-123799761D01*
X147004761Y-123847380D01*
X146814285Y-123847380D01*
X146719047Y-123799761D01*
X146671428Y-123752142D01*
X146623809Y-123656904D01*
X146623809Y-122847380D01*
X146195238Y-123799761D02*
X146052380Y-123847380D01*
X145814285Y-123847380D01*
X145719047Y-123799761D01*
X145671428Y-123752142D01*
X145623809Y-123656904D01*
X145623809Y-123561666D01*
X145671428Y-123466428D01*
X145719047Y-123418809D01*
X145814285Y-123371190D01*
X146004761Y-123323571D01*
X146100000Y-123275952D01*
X146147619Y-123228333D01*
X146195238Y-123133095D01*
X146195238Y-123037857D01*
X146147619Y-122942619D01*
X146100000Y-122895000D01*
X146004761Y-122847380D01*
X145766666Y-122847380D01*
X145623809Y-122895000D01*
X144861904Y-123323571D02*
X144719047Y-123371190D01*
X144671428Y-123418809D01*
X144623809Y-123514047D01*
X144623809Y-123656904D01*
X144671428Y-123752142D01*
X144719047Y-123799761D01*
X144814285Y-123847380D01*
X145195238Y-123847380D01*
X145195238Y-122847380D01*
X144861904Y-122847380D01*
X144766666Y-122895000D01*
X144719047Y-122942619D01*
X144671428Y-123037857D01*
X144671428Y-123133095D01*
X144719047Y-123228333D01*
X144766666Y-123275952D01*
X144861904Y-123323571D01*
X145195238Y-123323571D01*
X143100000Y-123323571D02*
X143433333Y-123323571D01*
X143433333Y-123847380D02*
X143433333Y-122847380D01*
X142957142Y-122847380D01*
X142576190Y-123847380D02*
X142576190Y-123180714D01*
X142576190Y-122847380D02*
X142623809Y-122895000D01*
X142576190Y-122942619D01*
X142528571Y-122895000D01*
X142576190Y-122847380D01*
X142576190Y-122942619D01*
X141957142Y-123847380D02*
X142052380Y-123799761D01*
X142100000Y-123704523D01*
X142100000Y-122847380D01*
X141719047Y-123180714D02*
X141338095Y-123180714D01*
X141576190Y-122847380D02*
X141576190Y-123704523D01*
X141528571Y-123799761D01*
X141433333Y-123847380D01*
X141338095Y-123847380D01*
X140623809Y-123799761D02*
X140719047Y-123847380D01*
X140909523Y-123847380D01*
X141004761Y-123799761D01*
X141052380Y-123704523D01*
X141052380Y-123323571D01*
X141004761Y-123228333D01*
X140909523Y-123180714D01*
X140719047Y-123180714D01*
X140623809Y-123228333D01*
X140576190Y-123323571D01*
X140576190Y-123418809D01*
X141052380Y-123514047D01*
X140147619Y-123847380D02*
X140147619Y-123180714D01*
X140147619Y-123371190D02*
X140100000Y-123275952D01*
X140052380Y-123228333D01*
X139957142Y-123180714D01*
X139861904Y-123180714D01*
X150933333Y-124830714D02*
X150695238Y-125497380D01*
X150457142Y-124830714D01*
X149552380Y-125497380D02*
X150123809Y-125497380D01*
X149838095Y-125497380D02*
X149838095Y-124497380D01*
X149933333Y-124640238D01*
X150028571Y-124735476D01*
X150123809Y-124783095D01*
X149123809Y-125402142D02*
X149076190Y-125449761D01*
X149123809Y-125497380D01*
X149171428Y-125449761D01*
X149123809Y-125402142D01*
X149123809Y-125497380D01*
X148457142Y-124497380D02*
X148361904Y-124497380D01*
X148266666Y-124545000D01*
X148219047Y-124592619D01*
X148171428Y-124687857D01*
X148123809Y-124878333D01*
X148123809Y-125116428D01*
X148171428Y-125306904D01*
X148219047Y-125402142D01*
X148266666Y-125449761D01*
X148361904Y-125497380D01*
X148457142Y-125497380D01*
X148552380Y-125449761D01*
X148600000Y-125402142D01*
X148647619Y-125306904D01*
X148695238Y-125116428D01*
X148695238Y-124878333D01*
X148647619Y-124687857D01*
X148600000Y-124592619D01*
X148552380Y-124545000D01*
X148457142Y-124497380D01*
X146980952Y-124592619D02*
X146933333Y-124545000D01*
X146838095Y-124497380D01*
X146600000Y-124497380D01*
X146504761Y-124545000D01*
X146457142Y-124592619D01*
X146409523Y-124687857D01*
X146409523Y-124783095D01*
X146457142Y-124925952D01*
X147028571Y-125497380D01*
X146409523Y-125497380D01*
X145552380Y-124830714D02*
X145552380Y-125497380D01*
X145790476Y-124449761D02*
X146028571Y-125164047D01*
X145409523Y-125164047D01*
X144838095Y-124497380D02*
X144742857Y-124497380D01*
X144647619Y-124545000D01*
X144600000Y-124592619D01*
X144552380Y-124687857D01*
X144504761Y-124878333D01*
X144504761Y-125116428D01*
X144552380Y-125306904D01*
X144600000Y-125402142D01*
X144647619Y-125449761D01*
X144742857Y-125497380D01*
X144838095Y-125497380D01*
X144933333Y-125449761D01*
X144980952Y-125402142D01*
X145028571Y-125306904D01*
X145076190Y-125116428D01*
X145076190Y-124878333D01*
X145028571Y-124687857D01*
X144980952Y-124592619D01*
X144933333Y-124545000D01*
X144838095Y-124497380D01*
X144171428Y-124497380D02*
X143552380Y-124497380D01*
X143885714Y-124878333D01*
X143742857Y-124878333D01*
X143647619Y-124925952D01*
X143600000Y-124973571D01*
X143552380Y-125068809D01*
X143552380Y-125306904D01*
X143600000Y-125402142D01*
X143647619Y-125449761D01*
X143742857Y-125497380D01*
X144028571Y-125497380D01*
X144123809Y-125449761D01*
X144171428Y-125402142D01*
X141790476Y-125402142D02*
X141838095Y-125449761D01*
X141980952Y-125497380D01*
X142076190Y-125497380D01*
X142219047Y-125449761D01*
X142314285Y-125354523D01*
X142361904Y-125259285D01*
X142409523Y-125068809D01*
X142409523Y-124925952D01*
X142361904Y-124735476D01*
X142314285Y-124640238D01*
X142219047Y-124545000D01*
X142076190Y-124497380D01*
X141980952Y-124497380D01*
X141838095Y-124545000D01*
X141790476Y-124592619D01*
X141361904Y-125497380D02*
X141361904Y-124830714D01*
X141361904Y-125021190D02*
X141314285Y-124925952D01*
X141266666Y-124878333D01*
X141171428Y-124830714D01*
X141076190Y-124830714D01*
X140361904Y-125449761D02*
X140457142Y-125497380D01*
X140647619Y-125497380D01*
X140742857Y-125449761D01*
X140790476Y-125354523D01*
X140790476Y-124973571D01*
X140742857Y-124878333D01*
X140647619Y-124830714D01*
X140457142Y-124830714D01*
X140361904Y-124878333D01*
X140314285Y-124973571D01*
X140314285Y-125068809D01*
X140790476Y-125164047D01*
X139933333Y-125449761D02*
X139838095Y-125497380D01*
X139647619Y-125497380D01*
X139552380Y-125449761D01*
X139504761Y-125354523D01*
X139504761Y-125306904D01*
X139552380Y-125211666D01*
X139647619Y-125164047D01*
X139790476Y-125164047D01*
X139885714Y-125116428D01*
X139933333Y-125021190D01*
X139933333Y-124973571D01*
X139885714Y-124878333D01*
X139790476Y-124830714D01*
X139647619Y-124830714D01*
X139552380Y-124878333D01*
X138647619Y-125449761D02*
X138742857Y-125497380D01*
X138933333Y-125497380D01*
X139028571Y-125449761D01*
X139076190Y-125402142D01*
X139123809Y-125306904D01*
X139123809Y-125021190D01*
X139076190Y-124925952D01*
X139028571Y-124878333D01*
X138933333Y-124830714D01*
X138742857Y-124830714D01*
X138647619Y-124878333D01*
X137838095Y-125449761D02*
X137933333Y-125497380D01*
X138123809Y-125497380D01*
X138219047Y-125449761D01*
X138266666Y-125354523D01*
X138266666Y-124973571D01*
X138219047Y-124878333D01*
X138123809Y-124830714D01*
X137933333Y-124830714D01*
X137838095Y-124878333D01*
X137790476Y-124973571D01*
X137790476Y-125068809D01*
X138266666Y-125164047D01*
X137361904Y-124830714D02*
X137361904Y-125497380D01*
X137361904Y-124925952D02*
X137314285Y-124878333D01*
X137219047Y-124830714D01*
X137076190Y-124830714D01*
X136980952Y-124878333D01*
X136933333Y-124973571D01*
X136933333Y-125497380D01*
X136600000Y-124830714D02*
X136219047Y-124830714D01*
X136457142Y-124497380D02*
X136457142Y-125354523D01*
X136409523Y-125449761D01*
X136314285Y-125497380D01*
X136219047Y-125497380D01*
M02*
