G04 #@! TF.GenerationSoftware,KiCad,Pcbnew,(5.1.2)-1*
G04 #@! TF.CreationDate,2024-04-02T23:01:08+09:00*
G04 #@! TF.ProjectId,uf,75662e6b-6963-4616-945f-706362585858,v1.0*
G04 #@! TF.SameCoordinates,Original*
G04 #@! TF.FileFunction,Other,Comment*
%FSLAX46Y46*%
G04 Gerber Fmt 4.6, Leading zero omitted, Abs format (unit mm)*
G04 Created by KiCad (PCBNEW (5.1.2)-1) date 2024-04-02 23:01:08*
%MOMM*%
%LPD*%
G04 APERTURE LIST*
%ADD10C,0.150000*%
G04 APERTURE END LIST*
D10*
X161161904Y-127452380D02*
X161495238Y-128452380D01*
X161828571Y-127452380D01*
X162733333Y-128357142D02*
X162685714Y-128404761D01*
X162542857Y-128452380D01*
X162447619Y-128452380D01*
X162304761Y-128404761D01*
X162209523Y-128309523D01*
X162161904Y-128214285D01*
X162114285Y-128023809D01*
X162114285Y-127880952D01*
X162161904Y-127690476D01*
X162209523Y-127595238D01*
X162304761Y-127500000D01*
X162447619Y-127452380D01*
X162542857Y-127452380D01*
X162685714Y-127500000D01*
X162733333Y-127547619D01*
X163161904Y-127452380D02*
X163161904Y-128261904D01*
X163209523Y-128357142D01*
X163257142Y-128404761D01*
X163352380Y-128452380D01*
X163542857Y-128452380D01*
X163638095Y-128404761D01*
X163685714Y-128357142D01*
X163733333Y-128261904D01*
X163733333Y-127452380D01*
X164066666Y-127452380D02*
X164638095Y-127452380D01*
X164352380Y-128452380D02*
X164352380Y-127452380D01*
X161261904Y-131352380D02*
X161595238Y-132352380D01*
X161928571Y-131352380D01*
X162833333Y-132257142D02*
X162785714Y-132304761D01*
X162642857Y-132352380D01*
X162547619Y-132352380D01*
X162404761Y-132304761D01*
X162309523Y-132209523D01*
X162261904Y-132114285D01*
X162214285Y-131923809D01*
X162214285Y-131780952D01*
X162261904Y-131590476D01*
X162309523Y-131495238D01*
X162404761Y-131400000D01*
X162547619Y-131352380D01*
X162642857Y-131352380D01*
X162785714Y-131400000D01*
X162833333Y-131447619D01*
X163261904Y-131352380D02*
X163261904Y-132161904D01*
X163309523Y-132257142D01*
X163357142Y-132304761D01*
X163452380Y-132352380D01*
X163642857Y-132352380D01*
X163738095Y-132304761D01*
X163785714Y-132257142D01*
X163833333Y-132161904D01*
X163833333Y-131352380D01*
X164166666Y-131352380D02*
X164738095Y-131352380D01*
X164452380Y-132352380D02*
X164452380Y-131352380D01*
X134647619Y-145361904D02*
X133647619Y-145695238D01*
X134647619Y-146028571D01*
X133742857Y-146933333D02*
X133695238Y-146885714D01*
X133647619Y-146742857D01*
X133647619Y-146647619D01*
X133695238Y-146504761D01*
X133790476Y-146409523D01*
X133885714Y-146361904D01*
X134076190Y-146314285D01*
X134219047Y-146314285D01*
X134409523Y-146361904D01*
X134504761Y-146409523D01*
X134600000Y-146504761D01*
X134647619Y-146647619D01*
X134647619Y-146742857D01*
X134600000Y-146885714D01*
X134552380Y-146933333D01*
X134647619Y-147361904D02*
X133838095Y-147361904D01*
X133742857Y-147409523D01*
X133695238Y-147457142D01*
X133647619Y-147552380D01*
X133647619Y-147742857D01*
X133695238Y-147838095D01*
X133742857Y-147885714D01*
X133838095Y-147933333D01*
X134647619Y-147933333D01*
X134647619Y-148266666D02*
X134647619Y-148838095D01*
X133647619Y-148552380D02*
X134647619Y-148552380D01*
X140947619Y-145461904D02*
X139947619Y-145795238D01*
X140947619Y-146128571D01*
X140042857Y-147033333D02*
X139995238Y-146985714D01*
X139947619Y-146842857D01*
X139947619Y-146747619D01*
X139995238Y-146604761D01*
X140090476Y-146509523D01*
X140185714Y-146461904D01*
X140376190Y-146414285D01*
X140519047Y-146414285D01*
X140709523Y-146461904D01*
X140804761Y-146509523D01*
X140900000Y-146604761D01*
X140947619Y-146747619D01*
X140947619Y-146842857D01*
X140900000Y-146985714D01*
X140852380Y-147033333D01*
X140947619Y-147461904D02*
X140138095Y-147461904D01*
X140042857Y-147509523D01*
X139995238Y-147557142D01*
X139947619Y-147652380D01*
X139947619Y-147842857D01*
X139995238Y-147938095D01*
X140042857Y-147985714D01*
X140138095Y-148033333D01*
X140947619Y-148033333D01*
X140947619Y-148366666D02*
X140947619Y-148938095D01*
X139947619Y-148652380D02*
X140947619Y-148652380D01*
X147147619Y-145261904D02*
X146147619Y-145595238D01*
X147147619Y-145928571D01*
X146242857Y-146833333D02*
X146195238Y-146785714D01*
X146147619Y-146642857D01*
X146147619Y-146547619D01*
X146195238Y-146404761D01*
X146290476Y-146309523D01*
X146385714Y-146261904D01*
X146576190Y-146214285D01*
X146719047Y-146214285D01*
X146909523Y-146261904D01*
X147004761Y-146309523D01*
X147100000Y-146404761D01*
X147147619Y-146547619D01*
X147147619Y-146642857D01*
X147100000Y-146785714D01*
X147052380Y-146833333D01*
X147147619Y-147261904D02*
X146338095Y-147261904D01*
X146242857Y-147309523D01*
X146195238Y-147357142D01*
X146147619Y-147452380D01*
X146147619Y-147642857D01*
X146195238Y-147738095D01*
X146242857Y-147785714D01*
X146338095Y-147833333D01*
X147147619Y-147833333D01*
X147147619Y-148166666D02*
X147147619Y-148738095D01*
X146147619Y-148452380D02*
X147147619Y-148452380D01*
X153447619Y-145461904D02*
X152447619Y-145795238D01*
X153447619Y-146128571D01*
X152542857Y-147033333D02*
X152495238Y-146985714D01*
X152447619Y-146842857D01*
X152447619Y-146747619D01*
X152495238Y-146604761D01*
X152590476Y-146509523D01*
X152685714Y-146461904D01*
X152876190Y-146414285D01*
X153019047Y-146414285D01*
X153209523Y-146461904D01*
X153304761Y-146509523D01*
X153400000Y-146604761D01*
X153447619Y-146747619D01*
X153447619Y-146842857D01*
X153400000Y-146985714D01*
X153352380Y-147033333D01*
X153447619Y-147461904D02*
X152638095Y-147461904D01*
X152542857Y-147509523D01*
X152495238Y-147557142D01*
X152447619Y-147652380D01*
X152447619Y-147842857D01*
X152495238Y-147938095D01*
X152542857Y-147985714D01*
X152638095Y-148033333D01*
X153447619Y-148033333D01*
X153447619Y-148366666D02*
X153447619Y-148938095D01*
X152447619Y-148652380D02*
X153447619Y-148652380D01*
X153000000Y-131800000D02*
X153000000Y-145100000D01*
X146700000Y-131800000D02*
X146700000Y-145000000D01*
X140500000Y-131800000D02*
X140500000Y-145100000D01*
X134300000Y-131800000D02*
X134300000Y-145000000D01*
X127000000Y-131800000D02*
X161000000Y-131800000D01*
X127000000Y-127800000D02*
X161000000Y-127800000D01*
X161900000Y-128300000D02*
G75*
G03X161900000Y-128300000I-2500000J0D01*
G01*
X161000000Y-128300000D02*
G75*
G03X161000000Y-128300000I-2500000J0D01*
G01*
X160100000Y-128300000D02*
G75*
G03X160100000Y-128300000I-2500000J0D01*
G01*
X159200000Y-128300000D02*
G75*
G03X159200000Y-128300000I-2500000J0D01*
G01*
X158300000Y-128300000D02*
G75*
G03X158300000Y-128300000I-2500000J0D01*
G01*
X155400000Y-128300000D02*
G75*
G03X155400000Y-128300000I-2500000J0D01*
G01*
X154500000Y-128300000D02*
G75*
G03X154500000Y-128300000I-2500000J0D01*
G01*
X153600000Y-128300000D02*
G75*
G03X153600000Y-128300000I-2500000J0D01*
G01*
X152700000Y-128300000D02*
G75*
G03X152700000Y-128300000I-2500000J0D01*
G01*
X151800000Y-128300000D02*
G75*
G03X151800000Y-128300000I-2500000J0D01*
G01*
X148800000Y-128300000D02*
G75*
G03X148800000Y-128300000I-2500000J0D01*
G01*
X147900000Y-128300000D02*
G75*
G03X147900000Y-128300000I-2500000J0D01*
G01*
X147000000Y-128300000D02*
G75*
G03X147000000Y-128300000I-2500000J0D01*
G01*
X146100000Y-128300000D02*
G75*
G03X146100000Y-128300000I-2500000J0D01*
G01*
X145200000Y-128300000D02*
G75*
G03X145200000Y-128300000I-2500000J0D01*
G01*
X142200000Y-128300000D02*
G75*
G03X142200000Y-128300000I-2500000J0D01*
G01*
X141300000Y-128300000D02*
G75*
G03X141300000Y-128300000I-2500000J0D01*
G01*
X140400000Y-128300000D02*
G75*
G03X140400000Y-128300000I-2500000J0D01*
G01*
X139500000Y-128300000D02*
G75*
G03X139500000Y-128300000I-2500000J0D01*
G01*
X138500000Y-128300000D02*
G75*
G03X138500000Y-128300000I-2500000J0D01*
G01*
X131500000Y-128300000D02*
G75*
G03X131500000Y-128300000I-2500000J0D01*
G01*
X132500000Y-128300000D02*
G75*
G03X132500000Y-128300000I-2500000J0D01*
G01*
X133500000Y-128300000D02*
G75*
G03X133500000Y-128300000I-2500000J0D01*
G01*
X134500000Y-128300000D02*
G75*
G03X134500000Y-128300000I-2500000J0D01*
G01*
X135500000Y-128300000D02*
G75*
G03X135500000Y-128300000I-2500000J0D01*
G01*
X137000000Y-137000000D02*
G75*
G03X137000000Y-137000000I-2500000J0D01*
G01*
X137000000Y-136000000D02*
G75*
G03X137000000Y-136000000I-2500000J0D01*
G01*
X137000000Y-135000000D02*
G75*
G03X137000000Y-135000000I-2500000J0D01*
G01*
X137000000Y-134000000D02*
G75*
G03X137000000Y-134000000I-2500000J0D01*
G01*
X137000000Y-133000000D02*
G75*
G03X137000000Y-133000000I-2500000J0D01*
G01*
X143700000Y-137000000D02*
G75*
G03X143700000Y-137000000I-2500000J0D01*
G01*
X143700000Y-136000000D02*
G75*
G03X143700000Y-136000000I-2500000J0D01*
G01*
X143700000Y-135000000D02*
G75*
G03X143700000Y-135000000I-2500000J0D01*
G01*
X143700000Y-134000000D02*
G75*
G03X143700000Y-134000000I-2500000J0D01*
G01*
X143700000Y-133000000D02*
G75*
G03X143700000Y-133000000I-2500000J0D01*
G01*
X150300000Y-137000000D02*
G75*
G03X150300000Y-137000000I-2500000J0D01*
G01*
X150300000Y-136000000D02*
G75*
G03X150300000Y-136000000I-2500000J0D01*
G01*
X150300000Y-135000000D02*
G75*
G03X150300000Y-135000000I-2500000J0D01*
G01*
X150300000Y-134000000D02*
G75*
G03X150300000Y-134000000I-2500000J0D01*
G01*
X150300000Y-133000000D02*
G75*
G03X150300000Y-133000000I-2500000J0D01*
G01*
X156810000Y-137000000D02*
G75*
G03X156810000Y-137000000I-2500000J0D01*
G01*
X156810000Y-136010000D02*
G75*
G03X156810000Y-136010000I-2500000J0D01*
G01*
X156800000Y-135010000D02*
G75*
G03X156800000Y-135010000I-2500000J0D01*
G01*
X156810000Y-134010000D02*
G75*
G03X156810000Y-134010000I-2500000J0D01*
G01*
X156800000Y-133010000D02*
G75*
G03X156800000Y-133010000I-2500000J0D01*
G01*
M02*
