G04 #@! TF.GenerationSoftware,KiCad,Pcbnew,(5.1.2)-1*
G04 #@! TF.CreationDate,2024-04-02T23:01:08+09:00*
G04 #@! TF.ProjectId,uf,75662e6b-6963-4616-945f-706362585858,v1.0*
G04 #@! TF.SameCoordinates,Original*
G04 #@! TF.FileFunction,Legend,Top*
G04 #@! TF.FilePolarity,Positive*
%FSLAX46Y46*%
G04 Gerber Fmt 4.6, Leading zero omitted, Abs format (unit mm)*
G04 Created by KiCad (PCBNEW (5.1.2)-1) date 2024-04-02 23:01:08*
%MOMM*%
%LPD*%
G04 APERTURE LIST*
%ADD10C,0.120000*%
%ADD11C,0.150000*%
%ADD12C,0.100000*%
G04 APERTURE END LIST*
D10*
X155887142Y-137202857D02*
X155887142Y-137031428D01*
X155844285Y-136945714D01*
X155801428Y-136902857D01*
X155672857Y-136817142D01*
X155501428Y-136774285D01*
X155158571Y-136774285D01*
X155072857Y-136817142D01*
X155030000Y-136860000D01*
X154987142Y-136945714D01*
X154987142Y-137117142D01*
X155030000Y-137202857D01*
X155072857Y-137245714D01*
X155158571Y-137288571D01*
X155372857Y-137288571D01*
X155458571Y-137245714D01*
X155501428Y-137202857D01*
X155544285Y-137117142D01*
X155544285Y-136945714D01*
X155501428Y-136860000D01*
X155458571Y-136817142D01*
X155372857Y-136774285D01*
X155072857Y-136431428D02*
X155030000Y-136388571D01*
X154987142Y-136302857D01*
X154987142Y-136088571D01*
X155030000Y-136002857D01*
X155072857Y-135960000D01*
X155158571Y-135917142D01*
X155244285Y-135917142D01*
X155372857Y-135960000D01*
X155887142Y-136474285D01*
X155887142Y-135917142D01*
X154987142Y-135360000D02*
X154987142Y-135274285D01*
X155030000Y-135188571D01*
X155072857Y-135145714D01*
X155158571Y-135102857D01*
X155330000Y-135060000D01*
X155544285Y-135060000D01*
X155715714Y-135102857D01*
X155801428Y-135145714D01*
X155844285Y-135188571D01*
X155887142Y-135274285D01*
X155887142Y-135360000D01*
X155844285Y-135445714D01*
X155801428Y-135488571D01*
X155715714Y-135531428D01*
X155544285Y-135574285D01*
X155330000Y-135574285D01*
X155158571Y-135531428D01*
X155072857Y-135488571D01*
X155030000Y-135445714D01*
X154987142Y-135360000D01*
X155887142Y-134545714D02*
X155844285Y-134631428D01*
X155801428Y-134674285D01*
X155715714Y-134717142D01*
X155458571Y-134717142D01*
X155372857Y-134674285D01*
X155330000Y-134631428D01*
X155287142Y-134545714D01*
X155287142Y-134417142D01*
X155330000Y-134331428D01*
X155372857Y-134288571D01*
X155458571Y-134245714D01*
X155715714Y-134245714D01*
X155801428Y-134288571D01*
X155844285Y-134331428D01*
X155887142Y-134417142D01*
X155887142Y-134545714D01*
X155887142Y-133860000D02*
X154987142Y-133860000D01*
X155887142Y-133474285D02*
X155415714Y-133474285D01*
X155330000Y-133517142D01*
X155287142Y-133602857D01*
X155287142Y-133731428D01*
X155330000Y-133817142D01*
X155372857Y-133860000D01*
X155887142Y-133045714D02*
X155287142Y-133045714D01*
X155372857Y-133045714D02*
X155330000Y-133002857D01*
X155287142Y-132917142D01*
X155287142Y-132788571D01*
X155330000Y-132702857D01*
X155415714Y-132660000D01*
X155887142Y-132660000D01*
X155415714Y-132660000D02*
X155330000Y-132617142D01*
X155287142Y-132531428D01*
X155287142Y-132402857D01*
X155330000Y-132317142D01*
X155415714Y-132274285D01*
X155887142Y-132274285D01*
X148877142Y-136920000D02*
X149477142Y-136920000D01*
X148534285Y-137134285D02*
X149177142Y-137348571D01*
X149177142Y-136791428D01*
X149477142Y-136405714D02*
X149477142Y-136234285D01*
X149434285Y-136148571D01*
X149391428Y-136105714D01*
X149262857Y-136020000D01*
X149091428Y-135977142D01*
X148748571Y-135977142D01*
X148662857Y-136020000D01*
X148620000Y-136062857D01*
X148577142Y-136148571D01*
X148577142Y-136320000D01*
X148620000Y-136405714D01*
X148662857Y-136448571D01*
X148748571Y-136491428D01*
X148962857Y-136491428D01*
X149048571Y-136448571D01*
X149091428Y-136405714D01*
X149134285Y-136320000D01*
X149134285Y-136148571D01*
X149091428Y-136062857D01*
X149048571Y-136020000D01*
X148962857Y-135977142D01*
X148577142Y-135420000D02*
X148577142Y-135334285D01*
X148620000Y-135248571D01*
X148662857Y-135205714D01*
X148748571Y-135162857D01*
X148920000Y-135120000D01*
X149134285Y-135120000D01*
X149305714Y-135162857D01*
X149391428Y-135205714D01*
X149434285Y-135248571D01*
X149477142Y-135334285D01*
X149477142Y-135420000D01*
X149434285Y-135505714D01*
X149391428Y-135548571D01*
X149305714Y-135591428D01*
X149134285Y-135634285D01*
X148920000Y-135634285D01*
X148748571Y-135591428D01*
X148662857Y-135548571D01*
X148620000Y-135505714D01*
X148577142Y-135420000D01*
X149477142Y-134605714D02*
X149434285Y-134691428D01*
X149391428Y-134734285D01*
X149305714Y-134777142D01*
X149048571Y-134777142D01*
X148962857Y-134734285D01*
X148920000Y-134691428D01*
X148877142Y-134605714D01*
X148877142Y-134477142D01*
X148920000Y-134391428D01*
X148962857Y-134348571D01*
X149048571Y-134305714D01*
X149305714Y-134305714D01*
X149391428Y-134348571D01*
X149434285Y-134391428D01*
X149477142Y-134477142D01*
X149477142Y-134605714D01*
X149477142Y-133920000D02*
X148577142Y-133920000D01*
X149477142Y-133534285D02*
X149005714Y-133534285D01*
X148920000Y-133577142D01*
X148877142Y-133662857D01*
X148877142Y-133791428D01*
X148920000Y-133877142D01*
X148962857Y-133920000D01*
X149477142Y-133105714D02*
X148877142Y-133105714D01*
X148962857Y-133105714D02*
X148920000Y-133062857D01*
X148877142Y-132977142D01*
X148877142Y-132848571D01*
X148920000Y-132762857D01*
X149005714Y-132720000D01*
X149477142Y-132720000D01*
X149005714Y-132720000D02*
X148920000Y-132677142D01*
X148877142Y-132591428D01*
X148877142Y-132462857D01*
X148920000Y-132377142D01*
X149005714Y-132334285D01*
X149477142Y-132334285D01*
X142082857Y-137418571D02*
X142040000Y-137375714D01*
X141997142Y-137290000D01*
X141997142Y-137075714D01*
X142040000Y-136990000D01*
X142082857Y-136947142D01*
X142168571Y-136904285D01*
X142254285Y-136904285D01*
X142382857Y-136947142D01*
X142897142Y-137461428D01*
X142897142Y-136904285D01*
X141997142Y-136132857D02*
X141997142Y-136304285D01*
X142040000Y-136390000D01*
X142082857Y-136432857D01*
X142211428Y-136518571D01*
X142382857Y-136561428D01*
X142725714Y-136561428D01*
X142811428Y-136518571D01*
X142854285Y-136475714D01*
X142897142Y-136390000D01*
X142897142Y-136218571D01*
X142854285Y-136132857D01*
X142811428Y-136090000D01*
X142725714Y-136047142D01*
X142511428Y-136047142D01*
X142425714Y-136090000D01*
X142382857Y-136132857D01*
X142340000Y-136218571D01*
X142340000Y-136390000D01*
X142382857Y-136475714D01*
X142425714Y-136518571D01*
X142511428Y-136561428D01*
X141997142Y-135490000D02*
X141997142Y-135404285D01*
X142040000Y-135318571D01*
X142082857Y-135275714D01*
X142168571Y-135232857D01*
X142340000Y-135190000D01*
X142554285Y-135190000D01*
X142725714Y-135232857D01*
X142811428Y-135275714D01*
X142854285Y-135318571D01*
X142897142Y-135404285D01*
X142897142Y-135490000D01*
X142854285Y-135575714D01*
X142811428Y-135618571D01*
X142725714Y-135661428D01*
X142554285Y-135704285D01*
X142340000Y-135704285D01*
X142168571Y-135661428D01*
X142082857Y-135618571D01*
X142040000Y-135575714D01*
X141997142Y-135490000D01*
X142897142Y-134675714D02*
X142854285Y-134761428D01*
X142811428Y-134804285D01*
X142725714Y-134847142D01*
X142468571Y-134847142D01*
X142382857Y-134804285D01*
X142340000Y-134761428D01*
X142297142Y-134675714D01*
X142297142Y-134547142D01*
X142340000Y-134461428D01*
X142382857Y-134418571D01*
X142468571Y-134375714D01*
X142725714Y-134375714D01*
X142811428Y-134418571D01*
X142854285Y-134461428D01*
X142897142Y-134547142D01*
X142897142Y-134675714D01*
X142897142Y-133990000D02*
X141997142Y-133990000D01*
X142897142Y-133604285D02*
X142425714Y-133604285D01*
X142340000Y-133647142D01*
X142297142Y-133732857D01*
X142297142Y-133861428D01*
X142340000Y-133947142D01*
X142382857Y-133990000D01*
X142897142Y-133175714D02*
X142297142Y-133175714D01*
X142382857Y-133175714D02*
X142340000Y-133132857D01*
X142297142Y-133047142D01*
X142297142Y-132918571D01*
X142340000Y-132832857D01*
X142425714Y-132790000D01*
X142897142Y-132790000D01*
X142425714Y-132790000D02*
X142340000Y-132747142D01*
X142297142Y-132661428D01*
X142297142Y-132532857D01*
X142340000Y-132447142D01*
X142425714Y-132404285D01*
X142897142Y-132404285D01*
X136307142Y-136954285D02*
X136307142Y-137468571D01*
X136307142Y-137211428D02*
X135407142Y-137211428D01*
X135535714Y-137297142D01*
X135621428Y-137382857D01*
X135664285Y-137468571D01*
X135492857Y-136611428D02*
X135450000Y-136568571D01*
X135407142Y-136482857D01*
X135407142Y-136268571D01*
X135450000Y-136182857D01*
X135492857Y-136140000D01*
X135578571Y-136097142D01*
X135664285Y-136097142D01*
X135792857Y-136140000D01*
X136307142Y-136654285D01*
X136307142Y-136097142D01*
X135407142Y-135540000D02*
X135407142Y-135454285D01*
X135450000Y-135368571D01*
X135492857Y-135325714D01*
X135578571Y-135282857D01*
X135750000Y-135240000D01*
X135964285Y-135240000D01*
X136135714Y-135282857D01*
X136221428Y-135325714D01*
X136264285Y-135368571D01*
X136307142Y-135454285D01*
X136307142Y-135540000D01*
X136264285Y-135625714D01*
X136221428Y-135668571D01*
X136135714Y-135711428D01*
X135964285Y-135754285D01*
X135750000Y-135754285D01*
X135578571Y-135711428D01*
X135492857Y-135668571D01*
X135450000Y-135625714D01*
X135407142Y-135540000D01*
X136307142Y-134725714D02*
X136264285Y-134811428D01*
X136221428Y-134854285D01*
X136135714Y-134897142D01*
X135878571Y-134897142D01*
X135792857Y-134854285D01*
X135750000Y-134811428D01*
X135707142Y-134725714D01*
X135707142Y-134597142D01*
X135750000Y-134511428D01*
X135792857Y-134468571D01*
X135878571Y-134425714D01*
X136135714Y-134425714D01*
X136221428Y-134468571D01*
X136264285Y-134511428D01*
X136307142Y-134597142D01*
X136307142Y-134725714D01*
X136307142Y-134040000D02*
X135407142Y-134040000D01*
X136307142Y-133654285D02*
X135835714Y-133654285D01*
X135750000Y-133697142D01*
X135707142Y-133782857D01*
X135707142Y-133911428D01*
X135750000Y-133997142D01*
X135792857Y-134040000D01*
X136307142Y-133225714D02*
X135707142Y-133225714D01*
X135792857Y-133225714D02*
X135750000Y-133182857D01*
X135707142Y-133097142D01*
X135707142Y-132968571D01*
X135750000Y-132882857D01*
X135835714Y-132840000D01*
X136307142Y-132840000D01*
X135835714Y-132840000D02*
X135750000Y-132797142D01*
X135707142Y-132711428D01*
X135707142Y-132582857D01*
X135750000Y-132497142D01*
X135835714Y-132454285D01*
X136307142Y-132454285D01*
X128687142Y-136671428D02*
X128687142Y-136842857D01*
X128730000Y-136928571D01*
X128772857Y-136971428D01*
X128901428Y-137057142D01*
X129072857Y-137100000D01*
X129415714Y-137100000D01*
X129501428Y-137057142D01*
X129544285Y-137014285D01*
X129587142Y-136928571D01*
X129587142Y-136757142D01*
X129544285Y-136671428D01*
X129501428Y-136628571D01*
X129415714Y-136585714D01*
X129201428Y-136585714D01*
X129115714Y-136628571D01*
X129072857Y-136671428D01*
X129030000Y-136757142D01*
X129030000Y-136928571D01*
X129072857Y-137014285D01*
X129115714Y-137057142D01*
X129201428Y-137100000D01*
X128687142Y-136285714D02*
X128687142Y-135685714D01*
X129587142Y-136071428D01*
X129587142Y-135214285D02*
X129544285Y-135300000D01*
X129501428Y-135342857D01*
X129415714Y-135385714D01*
X129158571Y-135385714D01*
X129072857Y-135342857D01*
X129030000Y-135300000D01*
X128987142Y-135214285D01*
X128987142Y-135085714D01*
X129030000Y-135000000D01*
X129072857Y-134957142D01*
X129158571Y-134914285D01*
X129415714Y-134914285D01*
X129501428Y-134957142D01*
X129544285Y-135000000D01*
X129587142Y-135085714D01*
X129587142Y-135214285D01*
X129587142Y-134528571D02*
X128687142Y-134528571D01*
X129587142Y-134142857D02*
X129115714Y-134142857D01*
X129030000Y-134185714D01*
X128987142Y-134271428D01*
X128987142Y-134400000D01*
X129030000Y-134485714D01*
X129072857Y-134528571D01*
X129587142Y-133714285D02*
X128987142Y-133714285D01*
X129072857Y-133714285D02*
X129030000Y-133671428D01*
X128987142Y-133585714D01*
X128987142Y-133457142D01*
X129030000Y-133371428D01*
X129115714Y-133328571D01*
X129587142Y-133328571D01*
X129115714Y-133328571D02*
X129030000Y-133285714D01*
X128987142Y-133200000D01*
X128987142Y-133071428D01*
X129030000Y-132985714D01*
X129115714Y-132942857D01*
X129587142Y-132942857D01*
X142561422Y-115180000D02*
X143078578Y-115180000D01*
X142561422Y-113760000D02*
X143078578Y-113760000D01*
X140010000Y-113162779D02*
X140010000Y-112837221D01*
X138990000Y-113162779D02*
X138990000Y-112837221D01*
X143108578Y-124270000D02*
X142591422Y-124270000D01*
X143108578Y-125690000D02*
X142591422Y-125690000D01*
X138010000Y-113162779D02*
X138010000Y-112837221D01*
X136990000Y-113162779D02*
X136990000Y-112837221D01*
D11*
X134460000Y-110500000D02*
X127960000Y-110500000D01*
X134460000Y-126500000D02*
X134460000Y-110500000D01*
X127960000Y-126500000D02*
X134460000Y-126500000D01*
X127960000Y-110500000D02*
X127960000Y-126500000D01*
X127460000Y-126500000D02*
X127960000Y-126500000D01*
X127460000Y-110500000D02*
X127460000Y-126500000D01*
X127960000Y-110500000D02*
X127460000Y-110500000D01*
D10*
X139670000Y-121250000D02*
X138340000Y-121250000D01*
X139670000Y-119920000D02*
X139670000Y-121250000D01*
X139670000Y-118650000D02*
X137010000Y-118650000D01*
X137010000Y-118650000D02*
X137010000Y-116050000D01*
X139670000Y-118650000D02*
X139670000Y-116050000D01*
X139670000Y-116050000D02*
X137010000Y-116050000D01*
X160200000Y-138030000D02*
X160200000Y-139360000D01*
X158870000Y-138030000D02*
X160200000Y-138030000D01*
X157600000Y-138030000D02*
X157600000Y-140690000D01*
X157600000Y-140690000D02*
X155000000Y-140690000D01*
X157600000Y-138030000D02*
X155000000Y-138030000D01*
X155000000Y-138030000D02*
X155000000Y-140690000D01*
X153660000Y-138050000D02*
X153660000Y-139380000D01*
X152330000Y-138050000D02*
X153660000Y-138050000D01*
X151060000Y-138050000D02*
X151060000Y-140710000D01*
X151060000Y-140710000D02*
X148460000Y-140710000D01*
X151060000Y-138050000D02*
X148460000Y-138050000D01*
X148460000Y-138050000D02*
X148460000Y-140710000D01*
X147110000Y-138050000D02*
X147110000Y-139380000D01*
X145780000Y-138050000D02*
X147110000Y-138050000D01*
X144510000Y-138050000D02*
X144510000Y-140710000D01*
X144510000Y-140710000D02*
X141910000Y-140710000D01*
X144510000Y-138050000D02*
X141910000Y-138050000D01*
X141910000Y-138050000D02*
X141910000Y-140710000D01*
X140510000Y-138050000D02*
X140510000Y-139380000D01*
X139180000Y-138050000D02*
X140510000Y-138050000D01*
X137910000Y-138050000D02*
X137910000Y-140710000D01*
X137910000Y-140710000D02*
X135310000Y-140710000D01*
X137910000Y-138050000D02*
X135310000Y-138050000D01*
X135310000Y-138050000D02*
X135310000Y-140710000D01*
X133670000Y-138050000D02*
X133670000Y-139380000D01*
X132340000Y-138050000D02*
X133670000Y-138050000D01*
X131070000Y-138050000D02*
X131070000Y-140710000D01*
X131070000Y-140710000D02*
X128470000Y-140710000D01*
X131070000Y-138050000D02*
X128470000Y-138050000D01*
X128470000Y-138050000D02*
X128470000Y-140710000D01*
X148650000Y-121290000D02*
X147320000Y-121290000D01*
X148650000Y-119960000D02*
X148650000Y-121290000D01*
X148650000Y-118690000D02*
X145990000Y-118690000D01*
X145990000Y-118690000D02*
X145990000Y-116090000D01*
X148650000Y-118690000D02*
X148650000Y-116090000D01*
X148650000Y-116090000D02*
X145990000Y-116090000D01*
X160150000Y-129140000D02*
X160150000Y-130470000D01*
X158820000Y-129140000D02*
X160150000Y-129140000D01*
X157550000Y-129140000D02*
X157550000Y-131800000D01*
X157550000Y-131800000D02*
X154950000Y-131800000D01*
X157550000Y-129140000D02*
X154950000Y-129140000D01*
X154950000Y-129140000D02*
X154950000Y-131800000D01*
X153660000Y-129160000D02*
X153660000Y-130490000D01*
X152330000Y-129160000D02*
X153660000Y-129160000D01*
X151060000Y-129160000D02*
X151060000Y-131820000D01*
X151060000Y-131820000D02*
X148460000Y-131820000D01*
X151060000Y-129160000D02*
X148460000Y-129160000D01*
X148460000Y-129160000D02*
X148460000Y-131820000D01*
X147110000Y-129160000D02*
X147110000Y-130490000D01*
X145780000Y-129160000D02*
X147110000Y-129160000D01*
X144510000Y-129160000D02*
X144510000Y-131820000D01*
X144510000Y-131820000D02*
X141910000Y-131820000D01*
X144510000Y-129160000D02*
X141910000Y-129160000D01*
X141910000Y-129160000D02*
X141910000Y-131820000D01*
X140510000Y-129160000D02*
X140510000Y-130490000D01*
X139180000Y-129160000D02*
X140510000Y-129160000D01*
X137910000Y-129160000D02*
X137910000Y-131820000D01*
X137910000Y-131820000D02*
X135310000Y-131820000D01*
X137910000Y-129160000D02*
X135310000Y-129160000D01*
X135310000Y-129160000D02*
X135310000Y-131820000D01*
X133740000Y-129160000D02*
X133740000Y-130490000D01*
X132410000Y-129160000D02*
X133740000Y-129160000D01*
X131140000Y-129160000D02*
X131140000Y-131820000D01*
X131140000Y-131820000D02*
X128540000Y-131820000D01*
X131140000Y-129160000D02*
X128540000Y-129160000D01*
X128540000Y-129160000D02*
X128540000Y-131820000D01*
D11*
X167040000Y-127000000D02*
X152540000Y-127000000D01*
X167040000Y-110000000D02*
X167040000Y-127000000D01*
X152540000Y-110000000D02*
X167040000Y-110000000D01*
X152540000Y-127000000D02*
X152540000Y-110000000D01*
D12*
X158590000Y-133665000D02*
X158590000Y-135695000D01*
X156810000Y-133310000D02*
X156810000Y-135695000D01*
X152080000Y-133845000D02*
X152080000Y-135875000D01*
X150300000Y-133490000D02*
X150300000Y-135875000D01*
X145470000Y-133845000D02*
X145470000Y-135875000D01*
X143690000Y-133490000D02*
X143690000Y-135875000D01*
X138830000Y-133845000D02*
X138830000Y-135875000D01*
X137050000Y-133490000D02*
X137050000Y-135875000D01*
X132040000Y-133845000D02*
X132040000Y-135875000D01*
X130260000Y-133490000D02*
X130260000Y-135875000D01*
D10*
X137970000Y-123950279D02*
X137970000Y-123624721D01*
X136950000Y-123950279D02*
X136950000Y-123624721D01*
X150050000Y-124162779D02*
X150050000Y-123837221D01*
X149030000Y-124162779D02*
X149030000Y-123837221D01*
D11*
X141986666Y-112748571D02*
X141653333Y-112748571D01*
X141653333Y-113272380D02*
X141653333Y-112272380D01*
X142129523Y-112272380D01*
X142843809Y-112748571D02*
X142986666Y-112796190D01*
X143034285Y-112843809D01*
X143081904Y-112939047D01*
X143081904Y-113081904D01*
X143034285Y-113177142D01*
X142986666Y-113224761D01*
X142891428Y-113272380D01*
X142510476Y-113272380D01*
X142510476Y-112272380D01*
X142843809Y-112272380D01*
X142939047Y-112320000D01*
X142986666Y-112367619D01*
X143034285Y-112462857D01*
X143034285Y-112558095D01*
X142986666Y-112653333D01*
X142939047Y-112700952D01*
X142843809Y-112748571D01*
X142510476Y-112748571D01*
X143462857Y-112367619D02*
X143510476Y-112320000D01*
X143605714Y-112272380D01*
X143843809Y-112272380D01*
X143939047Y-112320000D01*
X143986666Y-112367619D01*
X144034285Y-112462857D01*
X144034285Y-112558095D01*
X143986666Y-112700952D01*
X143415238Y-113272380D01*
X144034285Y-113272380D01*
X141197142Y-113136666D02*
X141244761Y-113184285D01*
X141292380Y-113327142D01*
X141292380Y-113422380D01*
X141244761Y-113565238D01*
X141149523Y-113660476D01*
X141054285Y-113708095D01*
X140863809Y-113755714D01*
X140720952Y-113755714D01*
X140530476Y-113708095D01*
X140435238Y-113660476D01*
X140340000Y-113565238D01*
X140292380Y-113422380D01*
X140292380Y-113327142D01*
X140340000Y-113184285D01*
X140387619Y-113136666D01*
X140292380Y-112803333D02*
X140292380Y-112184285D01*
X140673333Y-112517619D01*
X140673333Y-112374761D01*
X140720952Y-112279523D01*
X140768571Y-112231904D01*
X140863809Y-112184285D01*
X141101904Y-112184285D01*
X141197142Y-112231904D01*
X141244761Y-112279523D01*
X141292380Y-112374761D01*
X141292380Y-112660476D01*
X141244761Y-112755714D01*
X141197142Y-112803333D01*
X142186666Y-123238571D02*
X141853333Y-123238571D01*
X141853333Y-123762380D02*
X141853333Y-122762380D01*
X142329523Y-122762380D01*
X143043809Y-123238571D02*
X143186666Y-123286190D01*
X143234285Y-123333809D01*
X143281904Y-123429047D01*
X143281904Y-123571904D01*
X143234285Y-123667142D01*
X143186666Y-123714761D01*
X143091428Y-123762380D01*
X142710476Y-123762380D01*
X142710476Y-122762380D01*
X143043809Y-122762380D01*
X143139047Y-122810000D01*
X143186666Y-122857619D01*
X143234285Y-122952857D01*
X143234285Y-123048095D01*
X143186666Y-123143333D01*
X143139047Y-123190952D01*
X143043809Y-123238571D01*
X142710476Y-123238571D01*
X144234285Y-123762380D02*
X143662857Y-123762380D01*
X143948571Y-123762380D02*
X143948571Y-122762380D01*
X143853333Y-122905238D01*
X143758095Y-123000476D01*
X143662857Y-123048095D01*
X136682380Y-113066666D02*
X136206190Y-113400000D01*
X136682380Y-113638095D02*
X135682380Y-113638095D01*
X135682380Y-113257142D01*
X135730000Y-113161904D01*
X135777619Y-113114285D01*
X135872857Y-113066666D01*
X136015714Y-113066666D01*
X136110952Y-113114285D01*
X136158571Y-113161904D01*
X136206190Y-113257142D01*
X136206190Y-113638095D01*
X136682380Y-112114285D02*
X136682380Y-112685714D01*
X136682380Y-112400000D02*
X135682380Y-112400000D01*
X135825238Y-112495238D01*
X135920476Y-112590476D01*
X135968095Y-112685714D01*
X135170476Y-125422380D02*
X135170476Y-126136666D01*
X135122857Y-126279523D01*
X135027619Y-126374761D01*
X134884761Y-126422380D01*
X134789523Y-126422380D01*
X136170476Y-126422380D02*
X135599047Y-126422380D01*
X135884761Y-126422380D02*
X135884761Y-125422380D01*
X135789523Y-125565238D01*
X135694285Y-125660476D01*
X135599047Y-125708095D01*
X137027619Y-125755714D02*
X137027619Y-126422380D01*
X136789523Y-125374761D02*
X136551428Y-126089047D01*
X137170476Y-126089047D01*
X135702380Y-119449523D02*
X136416666Y-119449523D01*
X136559523Y-119497142D01*
X136654761Y-119592380D01*
X136702380Y-119735238D01*
X136702380Y-119830476D01*
X136702380Y-118449523D02*
X136702380Y-119020952D01*
X136702380Y-118735238D02*
X135702380Y-118735238D01*
X135845238Y-118830476D01*
X135940476Y-118925714D01*
X135988095Y-119020952D01*
X135702380Y-118116190D02*
X135702380Y-117497142D01*
X136083333Y-117830476D01*
X136083333Y-117687619D01*
X136130952Y-117592380D01*
X136178571Y-117544761D01*
X136273809Y-117497142D01*
X136511904Y-117497142D01*
X136607142Y-117544761D01*
X136654761Y-117592380D01*
X136702380Y-117687619D01*
X136702380Y-117973333D01*
X136654761Y-118068571D01*
X136607142Y-118116190D01*
X144812380Y-118973333D02*
X145526666Y-118973333D01*
X145669523Y-119020952D01*
X145764761Y-119116190D01*
X145812380Y-119259047D01*
X145812380Y-119354285D01*
X144812380Y-118592380D02*
X144812380Y-117925714D01*
X145812380Y-118354285D01*
X151006666Y-125792380D02*
X151006666Y-126506666D01*
X150959047Y-126649523D01*
X150863809Y-126744761D01*
X150720952Y-126792380D01*
X150625714Y-126792380D01*
X152006666Y-126792380D02*
X151435238Y-126792380D01*
X151720952Y-126792380D02*
X151720952Y-125792380D01*
X151625714Y-125935238D01*
X151530476Y-126030476D01*
X151435238Y-126078095D01*
X159578571Y-135468095D02*
X159578571Y-135801428D01*
X160102380Y-135801428D02*
X159102380Y-135801428D01*
X159102380Y-135325238D01*
X160102380Y-134468095D02*
X160102380Y-134944285D01*
X159102380Y-134944285D01*
X159102380Y-133658571D02*
X159102380Y-134134761D01*
X159578571Y-134182380D01*
X159530952Y-134134761D01*
X159483333Y-134039523D01*
X159483333Y-133801428D01*
X159530952Y-133706190D01*
X159578571Y-133658571D01*
X159673809Y-133610952D01*
X159911904Y-133610952D01*
X160007142Y-133658571D01*
X160054761Y-133706190D01*
X160102380Y-133801428D01*
X160102380Y-134039523D01*
X160054761Y-134134761D01*
X160007142Y-134182380D01*
X152928571Y-135538095D02*
X152928571Y-135871428D01*
X153452380Y-135871428D02*
X152452380Y-135871428D01*
X152452380Y-135395238D01*
X153452380Y-134538095D02*
X153452380Y-135014285D01*
X152452380Y-135014285D01*
X152785714Y-133776190D02*
X153452380Y-133776190D01*
X152404761Y-134014285D02*
X153119047Y-134252380D01*
X153119047Y-133633333D01*
X146528571Y-135518095D02*
X146528571Y-135851428D01*
X147052380Y-135851428D02*
X146052380Y-135851428D01*
X146052380Y-135375238D01*
X147052380Y-134518095D02*
X147052380Y-134994285D01*
X146052380Y-134994285D01*
X146052380Y-134280000D02*
X146052380Y-133660952D01*
X146433333Y-133994285D01*
X146433333Y-133851428D01*
X146480952Y-133756190D01*
X146528571Y-133708571D01*
X146623809Y-133660952D01*
X146861904Y-133660952D01*
X146957142Y-133708571D01*
X147004761Y-133756190D01*
X147052380Y-133851428D01*
X147052380Y-134137142D01*
X147004761Y-134232380D01*
X146957142Y-134280000D01*
X139788571Y-135578095D02*
X139788571Y-135911428D01*
X140312380Y-135911428D02*
X139312380Y-135911428D01*
X139312380Y-135435238D01*
X140312380Y-134578095D02*
X140312380Y-135054285D01*
X139312380Y-135054285D01*
X139407619Y-134292380D02*
X139360000Y-134244761D01*
X139312380Y-134149523D01*
X139312380Y-133911428D01*
X139360000Y-133816190D01*
X139407619Y-133768571D01*
X139502857Y-133720952D01*
X139598095Y-133720952D01*
X139740952Y-133768571D01*
X140312380Y-134340000D01*
X140312380Y-133720952D01*
X133028571Y-135538095D02*
X133028571Y-135871428D01*
X133552380Y-135871428D02*
X132552380Y-135871428D01*
X132552380Y-135395238D01*
X133552380Y-134538095D02*
X133552380Y-135014285D01*
X132552380Y-135014285D01*
X133552380Y-133680952D02*
X133552380Y-134252380D01*
X133552380Y-133966666D02*
X132552380Y-133966666D01*
X132695238Y-134061904D01*
X132790476Y-134157142D01*
X132838095Y-134252380D01*
X139327142Y-123996666D02*
X139374761Y-124044285D01*
X139422380Y-124187142D01*
X139422380Y-124282380D01*
X139374761Y-124425238D01*
X139279523Y-124520476D01*
X139184285Y-124568095D01*
X138993809Y-124615714D01*
X138850952Y-124615714D01*
X138660476Y-124568095D01*
X138565238Y-124520476D01*
X138470000Y-124425238D01*
X138422380Y-124282380D01*
X138422380Y-124187142D01*
X138470000Y-124044285D01*
X138517619Y-123996666D01*
X138517619Y-123615714D02*
X138470000Y-123568095D01*
X138422380Y-123472857D01*
X138422380Y-123234761D01*
X138470000Y-123139523D01*
X138517619Y-123091904D01*
X138612857Y-123044285D01*
X138708095Y-123044285D01*
X138850952Y-123091904D01*
X139422380Y-123663333D01*
X139422380Y-123044285D01*
X148467142Y-124166666D02*
X148514761Y-124214285D01*
X148562380Y-124357142D01*
X148562380Y-124452380D01*
X148514761Y-124595238D01*
X148419523Y-124690476D01*
X148324285Y-124738095D01*
X148133809Y-124785714D01*
X147990952Y-124785714D01*
X147800476Y-124738095D01*
X147705238Y-124690476D01*
X147610000Y-124595238D01*
X147562380Y-124452380D01*
X147562380Y-124357142D01*
X147610000Y-124214285D01*
X147657619Y-124166666D01*
X148562380Y-123214285D02*
X148562380Y-123785714D01*
X148562380Y-123500000D02*
X147562380Y-123500000D01*
X147705238Y-123595238D01*
X147800476Y-123690476D01*
X147848095Y-123785714D01*
M02*
