G04 #@! TF.GenerationSoftware,KiCad,Pcbnew,(5.1.2)-1*
G04 #@! TF.CreationDate,2024-04-02T23:01:08+09:00*
G04 #@! TF.ProjectId,uf,75662e6b-6963-4616-945f-706362585858,v1.0*
G04 #@! TF.SameCoordinates,Original*
G04 #@! TF.FileFunction,Soldermask,Top*
G04 #@! TF.FilePolarity,Negative*
%FSLAX46Y46*%
G04 Gerber Fmt 4.6, Leading zero omitted, Abs format (unit mm)*
G04 Created by KiCad (PCBNEW (5.1.2)-1) date 2024-04-02 23:01:08*
%MOMM*%
%LPD*%
G04 APERTURE LIST*
%ADD10C,0.100000*%
G04 APERTURE END LIST*
D10*
G36*
X149900443Y-138485519D02*
G01*
X149966627Y-138492037D01*
X150136466Y-138543557D01*
X150292991Y-138627222D01*
X150328729Y-138656552D01*
X150430186Y-138739814D01*
X150513448Y-138841271D01*
X150542778Y-138877009D01*
X150626443Y-139033534D01*
X150677963Y-139203373D01*
X150695359Y-139380000D01*
X150677963Y-139556627D01*
X150626443Y-139726466D01*
X150542778Y-139882991D01*
X150513448Y-139918729D01*
X150430186Y-140020186D01*
X150357480Y-140079853D01*
X150292991Y-140132778D01*
X150136466Y-140216443D01*
X149966627Y-140267963D01*
X149900443Y-140274481D01*
X149834260Y-140281000D01*
X149745740Y-140281000D01*
X149679557Y-140274481D01*
X149613373Y-140267963D01*
X149443534Y-140216443D01*
X149287009Y-140132778D01*
X149222520Y-140079853D01*
X149149814Y-140020186D01*
X149066552Y-139918729D01*
X149037222Y-139882991D01*
X148953557Y-139726466D01*
X148902037Y-139556627D01*
X148884641Y-139380000D01*
X148902037Y-139203373D01*
X148953557Y-139033534D01*
X149037222Y-138877009D01*
X149066552Y-138841271D01*
X149149814Y-138739814D01*
X149251271Y-138656552D01*
X149287009Y-138627222D01*
X149443534Y-138543557D01*
X149613373Y-138492037D01*
X149679557Y-138485519D01*
X149745740Y-138479000D01*
X149834260Y-138479000D01*
X149900443Y-138485519D01*
X149900443Y-138485519D01*
G37*
G36*
X152443512Y-138483927D02*
G01*
X152592812Y-138513624D01*
X152756784Y-138581544D01*
X152904354Y-138680147D01*
X153029853Y-138805646D01*
X153128456Y-138953216D01*
X153196376Y-139117188D01*
X153231000Y-139291259D01*
X153231000Y-139468741D01*
X153196376Y-139642812D01*
X153128456Y-139806784D01*
X153029853Y-139954354D01*
X152904354Y-140079853D01*
X152756784Y-140178456D01*
X152592812Y-140246376D01*
X152443512Y-140276073D01*
X152418742Y-140281000D01*
X152241258Y-140281000D01*
X152216488Y-140276073D01*
X152067188Y-140246376D01*
X151903216Y-140178456D01*
X151755646Y-140079853D01*
X151630147Y-139954354D01*
X151531544Y-139806784D01*
X151463624Y-139642812D01*
X151429000Y-139468741D01*
X151429000Y-139291259D01*
X151463624Y-139117188D01*
X151531544Y-138953216D01*
X151630147Y-138805646D01*
X151755646Y-138680147D01*
X151903216Y-138581544D01*
X152067188Y-138513624D01*
X152216488Y-138483927D01*
X152241258Y-138479000D01*
X152418742Y-138479000D01*
X152443512Y-138483927D01*
X152443512Y-138483927D01*
G37*
G36*
X132453512Y-138483927D02*
G01*
X132602812Y-138513624D01*
X132766784Y-138581544D01*
X132914354Y-138680147D01*
X133039853Y-138805646D01*
X133138456Y-138953216D01*
X133206376Y-139117188D01*
X133241000Y-139291259D01*
X133241000Y-139468741D01*
X133206376Y-139642812D01*
X133138456Y-139806784D01*
X133039853Y-139954354D01*
X132914354Y-140079853D01*
X132766784Y-140178456D01*
X132602812Y-140246376D01*
X132453512Y-140276073D01*
X132428742Y-140281000D01*
X132251258Y-140281000D01*
X132226488Y-140276073D01*
X132077188Y-140246376D01*
X131913216Y-140178456D01*
X131765646Y-140079853D01*
X131640147Y-139954354D01*
X131541544Y-139806784D01*
X131473624Y-139642812D01*
X131439000Y-139468741D01*
X131439000Y-139291259D01*
X131473624Y-139117188D01*
X131541544Y-138953216D01*
X131640147Y-138805646D01*
X131765646Y-138680147D01*
X131913216Y-138581544D01*
X132077188Y-138513624D01*
X132226488Y-138483927D01*
X132251258Y-138479000D01*
X132428742Y-138479000D01*
X132453512Y-138483927D01*
X132453512Y-138483927D01*
G37*
G36*
X129910443Y-138485519D02*
G01*
X129976627Y-138492037D01*
X130146466Y-138543557D01*
X130302991Y-138627222D01*
X130338729Y-138656552D01*
X130440186Y-138739814D01*
X130523448Y-138841271D01*
X130552778Y-138877009D01*
X130636443Y-139033534D01*
X130687963Y-139203373D01*
X130705359Y-139380000D01*
X130687963Y-139556627D01*
X130636443Y-139726466D01*
X130552778Y-139882991D01*
X130523448Y-139918729D01*
X130440186Y-140020186D01*
X130367480Y-140079853D01*
X130302991Y-140132778D01*
X130146466Y-140216443D01*
X129976627Y-140267963D01*
X129910443Y-140274481D01*
X129844260Y-140281000D01*
X129755740Y-140281000D01*
X129689557Y-140274481D01*
X129623373Y-140267963D01*
X129453534Y-140216443D01*
X129297009Y-140132778D01*
X129232520Y-140079853D01*
X129159814Y-140020186D01*
X129076552Y-139918729D01*
X129047222Y-139882991D01*
X128963557Y-139726466D01*
X128912037Y-139556627D01*
X128894641Y-139380000D01*
X128912037Y-139203373D01*
X128963557Y-139033534D01*
X129047222Y-138877009D01*
X129076552Y-138841271D01*
X129159814Y-138739814D01*
X129261271Y-138656552D01*
X129297009Y-138627222D01*
X129453534Y-138543557D01*
X129623373Y-138492037D01*
X129689557Y-138485519D01*
X129755740Y-138479000D01*
X129844260Y-138479000D01*
X129910443Y-138485519D01*
X129910443Y-138485519D01*
G37*
G36*
X139293512Y-138483927D02*
G01*
X139442812Y-138513624D01*
X139606784Y-138581544D01*
X139754354Y-138680147D01*
X139879853Y-138805646D01*
X139978456Y-138953216D01*
X140046376Y-139117188D01*
X140081000Y-139291259D01*
X140081000Y-139468741D01*
X140046376Y-139642812D01*
X139978456Y-139806784D01*
X139879853Y-139954354D01*
X139754354Y-140079853D01*
X139606784Y-140178456D01*
X139442812Y-140246376D01*
X139293512Y-140276073D01*
X139268742Y-140281000D01*
X139091258Y-140281000D01*
X139066488Y-140276073D01*
X138917188Y-140246376D01*
X138753216Y-140178456D01*
X138605646Y-140079853D01*
X138480147Y-139954354D01*
X138381544Y-139806784D01*
X138313624Y-139642812D01*
X138279000Y-139468741D01*
X138279000Y-139291259D01*
X138313624Y-139117188D01*
X138381544Y-138953216D01*
X138480147Y-138805646D01*
X138605646Y-138680147D01*
X138753216Y-138581544D01*
X138917188Y-138513624D01*
X139066488Y-138483927D01*
X139091258Y-138479000D01*
X139268742Y-138479000D01*
X139293512Y-138483927D01*
X139293512Y-138483927D01*
G37*
G36*
X145893512Y-138483927D02*
G01*
X146042812Y-138513624D01*
X146206784Y-138581544D01*
X146354354Y-138680147D01*
X146479853Y-138805646D01*
X146578456Y-138953216D01*
X146646376Y-139117188D01*
X146681000Y-139291259D01*
X146681000Y-139468741D01*
X146646376Y-139642812D01*
X146578456Y-139806784D01*
X146479853Y-139954354D01*
X146354354Y-140079853D01*
X146206784Y-140178456D01*
X146042812Y-140246376D01*
X145893512Y-140276073D01*
X145868742Y-140281000D01*
X145691258Y-140281000D01*
X145666488Y-140276073D01*
X145517188Y-140246376D01*
X145353216Y-140178456D01*
X145205646Y-140079853D01*
X145080147Y-139954354D01*
X144981544Y-139806784D01*
X144913624Y-139642812D01*
X144879000Y-139468741D01*
X144879000Y-139291259D01*
X144913624Y-139117188D01*
X144981544Y-138953216D01*
X145080147Y-138805646D01*
X145205646Y-138680147D01*
X145353216Y-138581544D01*
X145517188Y-138513624D01*
X145666488Y-138483927D01*
X145691258Y-138479000D01*
X145868742Y-138479000D01*
X145893512Y-138483927D01*
X145893512Y-138483927D01*
G37*
G36*
X143350443Y-138485519D02*
G01*
X143416627Y-138492037D01*
X143586466Y-138543557D01*
X143742991Y-138627222D01*
X143778729Y-138656552D01*
X143880186Y-138739814D01*
X143963448Y-138841271D01*
X143992778Y-138877009D01*
X144076443Y-139033534D01*
X144127963Y-139203373D01*
X144145359Y-139380000D01*
X144127963Y-139556627D01*
X144076443Y-139726466D01*
X143992778Y-139882991D01*
X143963448Y-139918729D01*
X143880186Y-140020186D01*
X143807480Y-140079853D01*
X143742991Y-140132778D01*
X143586466Y-140216443D01*
X143416627Y-140267963D01*
X143350443Y-140274481D01*
X143284260Y-140281000D01*
X143195740Y-140281000D01*
X143129557Y-140274481D01*
X143063373Y-140267963D01*
X142893534Y-140216443D01*
X142737009Y-140132778D01*
X142672520Y-140079853D01*
X142599814Y-140020186D01*
X142516552Y-139918729D01*
X142487222Y-139882991D01*
X142403557Y-139726466D01*
X142352037Y-139556627D01*
X142334641Y-139380000D01*
X142352037Y-139203373D01*
X142403557Y-139033534D01*
X142487222Y-138877009D01*
X142516552Y-138841271D01*
X142599814Y-138739814D01*
X142701271Y-138656552D01*
X142737009Y-138627222D01*
X142893534Y-138543557D01*
X143063373Y-138492037D01*
X143129557Y-138485519D01*
X143195740Y-138479000D01*
X143284260Y-138479000D01*
X143350443Y-138485519D01*
X143350443Y-138485519D01*
G37*
G36*
X136750443Y-138485519D02*
G01*
X136816627Y-138492037D01*
X136986466Y-138543557D01*
X137142991Y-138627222D01*
X137178729Y-138656552D01*
X137280186Y-138739814D01*
X137363448Y-138841271D01*
X137392778Y-138877009D01*
X137476443Y-139033534D01*
X137527963Y-139203373D01*
X137545359Y-139380000D01*
X137527963Y-139556627D01*
X137476443Y-139726466D01*
X137392778Y-139882991D01*
X137363448Y-139918729D01*
X137280186Y-140020186D01*
X137207480Y-140079853D01*
X137142991Y-140132778D01*
X136986466Y-140216443D01*
X136816627Y-140267963D01*
X136750443Y-140274481D01*
X136684260Y-140281000D01*
X136595740Y-140281000D01*
X136529557Y-140274481D01*
X136463373Y-140267963D01*
X136293534Y-140216443D01*
X136137009Y-140132778D01*
X136072520Y-140079853D01*
X135999814Y-140020186D01*
X135916552Y-139918729D01*
X135887222Y-139882991D01*
X135803557Y-139726466D01*
X135752037Y-139556627D01*
X135734641Y-139380000D01*
X135752037Y-139203373D01*
X135803557Y-139033534D01*
X135887222Y-138877009D01*
X135916552Y-138841271D01*
X135999814Y-138739814D01*
X136101271Y-138656552D01*
X136137009Y-138627222D01*
X136293534Y-138543557D01*
X136463373Y-138492037D01*
X136529557Y-138485519D01*
X136595740Y-138479000D01*
X136684260Y-138479000D01*
X136750443Y-138485519D01*
X136750443Y-138485519D01*
G37*
G36*
X156440443Y-138465519D02*
G01*
X156506627Y-138472037D01*
X156676466Y-138523557D01*
X156832991Y-138607222D01*
X156857361Y-138627222D01*
X156970186Y-138719814D01*
X157040625Y-138805646D01*
X157082778Y-138857009D01*
X157166443Y-139013534D01*
X157217963Y-139183373D01*
X157235359Y-139360000D01*
X157217963Y-139536627D01*
X157166443Y-139706466D01*
X157082778Y-139862991D01*
X157066366Y-139882989D01*
X156970186Y-140000186D01*
X156897480Y-140059853D01*
X156832991Y-140112778D01*
X156676466Y-140196443D01*
X156506627Y-140247963D01*
X156440442Y-140254482D01*
X156374260Y-140261000D01*
X156285740Y-140261000D01*
X156219558Y-140254482D01*
X156153373Y-140247963D01*
X155983534Y-140196443D01*
X155827009Y-140112778D01*
X155762520Y-140059853D01*
X155689814Y-140000186D01*
X155593634Y-139882989D01*
X155577222Y-139862991D01*
X155493557Y-139706466D01*
X155442037Y-139536627D01*
X155424641Y-139360000D01*
X155442037Y-139183373D01*
X155493557Y-139013534D01*
X155577222Y-138857009D01*
X155619375Y-138805646D01*
X155689814Y-138719814D01*
X155802639Y-138627222D01*
X155827009Y-138607222D01*
X155983534Y-138523557D01*
X156153373Y-138472037D01*
X156219557Y-138465519D01*
X156285740Y-138459000D01*
X156374260Y-138459000D01*
X156440443Y-138465519D01*
X156440443Y-138465519D01*
G37*
G36*
X158983512Y-138463927D02*
G01*
X159132812Y-138493624D01*
X159296784Y-138561544D01*
X159444354Y-138660147D01*
X159569853Y-138785646D01*
X159668456Y-138933216D01*
X159736376Y-139097188D01*
X159771000Y-139271259D01*
X159771000Y-139448741D01*
X159736376Y-139622812D01*
X159668456Y-139786784D01*
X159569853Y-139934354D01*
X159444354Y-140059853D01*
X159296784Y-140158456D01*
X159132812Y-140226376D01*
X158983512Y-140256073D01*
X158958742Y-140261000D01*
X158781258Y-140261000D01*
X158756488Y-140256073D01*
X158607188Y-140226376D01*
X158443216Y-140158456D01*
X158295646Y-140059853D01*
X158170147Y-139934354D01*
X158071544Y-139786784D01*
X158003624Y-139622812D01*
X157969000Y-139448741D01*
X157969000Y-139271259D01*
X158003624Y-139097188D01*
X158071544Y-138933216D01*
X158170147Y-138785646D01*
X158295646Y-138660147D01*
X158443216Y-138561544D01*
X158607188Y-138493624D01*
X158756488Y-138463927D01*
X158781258Y-138459000D01*
X158958742Y-138459000D01*
X158983512Y-138463927D01*
X158983512Y-138463927D01*
G37*
G36*
X151931000Y-136126000D02*
G01*
X151319000Y-136126000D01*
X151319000Y-135264000D01*
X151931000Y-135264000D01*
X151931000Y-136126000D01*
X151931000Y-136126000D01*
G37*
G36*
X151061000Y-136126000D02*
G01*
X150449000Y-136126000D01*
X150449000Y-135264000D01*
X151061000Y-135264000D01*
X151061000Y-136126000D01*
X151061000Y-136126000D01*
G37*
G36*
X145321000Y-136126000D02*
G01*
X144709000Y-136126000D01*
X144709000Y-135264000D01*
X145321000Y-135264000D01*
X145321000Y-136126000D01*
X145321000Y-136126000D01*
G37*
G36*
X144451000Y-136126000D02*
G01*
X143839000Y-136126000D01*
X143839000Y-135264000D01*
X144451000Y-135264000D01*
X144451000Y-136126000D01*
X144451000Y-136126000D01*
G37*
G36*
X138681000Y-136126000D02*
G01*
X138069000Y-136126000D01*
X138069000Y-135264000D01*
X138681000Y-135264000D01*
X138681000Y-136126000D01*
X138681000Y-136126000D01*
G37*
G36*
X137811000Y-136126000D02*
G01*
X137199000Y-136126000D01*
X137199000Y-135264000D01*
X137811000Y-135264000D01*
X137811000Y-136126000D01*
X137811000Y-136126000D01*
G37*
G36*
X131891000Y-136126000D02*
G01*
X131279000Y-136126000D01*
X131279000Y-135264000D01*
X131891000Y-135264000D01*
X131891000Y-136126000D01*
X131891000Y-136126000D01*
G37*
G36*
X131021000Y-136126000D02*
G01*
X130409000Y-136126000D01*
X130409000Y-135264000D01*
X131021000Y-135264000D01*
X131021000Y-136126000D01*
X131021000Y-136126000D01*
G37*
G36*
X157571000Y-135946000D02*
G01*
X156959000Y-135946000D01*
X156959000Y-135084000D01*
X157571000Y-135084000D01*
X157571000Y-135946000D01*
X157571000Y-135946000D01*
G37*
G36*
X158441000Y-135946000D02*
G01*
X157829000Y-135946000D01*
X157829000Y-135084000D01*
X158441000Y-135084000D01*
X158441000Y-135946000D01*
X158441000Y-135946000D01*
G37*
G36*
X138681000Y-134456000D02*
G01*
X138069000Y-134456000D01*
X138069000Y-133594000D01*
X138681000Y-133594000D01*
X138681000Y-134456000D01*
X138681000Y-134456000D01*
G37*
G36*
X151061000Y-134456000D02*
G01*
X150449000Y-134456000D01*
X150449000Y-133594000D01*
X151061000Y-133594000D01*
X151061000Y-134456000D01*
X151061000Y-134456000D01*
G37*
G36*
X144451000Y-134456000D02*
G01*
X143839000Y-134456000D01*
X143839000Y-133594000D01*
X144451000Y-133594000D01*
X144451000Y-134456000D01*
X144451000Y-134456000D01*
G37*
G36*
X145321000Y-134456000D02*
G01*
X144709000Y-134456000D01*
X144709000Y-133594000D01*
X145321000Y-133594000D01*
X145321000Y-134456000D01*
X145321000Y-134456000D01*
G37*
G36*
X151931000Y-134456000D02*
G01*
X151319000Y-134456000D01*
X151319000Y-133594000D01*
X151931000Y-133594000D01*
X151931000Y-134456000D01*
X151931000Y-134456000D01*
G37*
G36*
X131891000Y-134456000D02*
G01*
X131279000Y-134456000D01*
X131279000Y-133594000D01*
X131891000Y-133594000D01*
X131891000Y-134456000D01*
X131891000Y-134456000D01*
G37*
G36*
X137811000Y-134456000D02*
G01*
X137199000Y-134456000D01*
X137199000Y-133594000D01*
X137811000Y-133594000D01*
X137811000Y-134456000D01*
X137811000Y-134456000D01*
G37*
G36*
X131021000Y-134456000D02*
G01*
X130409000Y-134456000D01*
X130409000Y-133594000D01*
X131021000Y-133594000D01*
X131021000Y-134456000D01*
X131021000Y-134456000D01*
G37*
G36*
X157571000Y-134276000D02*
G01*
X156959000Y-134276000D01*
X156959000Y-133414000D01*
X157571000Y-133414000D01*
X157571000Y-134276000D01*
X157571000Y-134276000D01*
G37*
G36*
X158441000Y-134276000D02*
G01*
X157829000Y-134276000D01*
X157829000Y-133414000D01*
X158441000Y-133414000D01*
X158441000Y-134276000D01*
X158441000Y-134276000D01*
G37*
G36*
X129980443Y-129595519D02*
G01*
X130046627Y-129602037D01*
X130216466Y-129653557D01*
X130372991Y-129737222D01*
X130408729Y-129766552D01*
X130510186Y-129849814D01*
X130593448Y-129951271D01*
X130622778Y-129987009D01*
X130706443Y-130143534D01*
X130757963Y-130313373D01*
X130775359Y-130490000D01*
X130757963Y-130666627D01*
X130706443Y-130836466D01*
X130622778Y-130992991D01*
X130593448Y-131028729D01*
X130510186Y-131130186D01*
X130437480Y-131189853D01*
X130372991Y-131242778D01*
X130216466Y-131326443D01*
X130046627Y-131377963D01*
X129980443Y-131384481D01*
X129914260Y-131391000D01*
X129825740Y-131391000D01*
X129759557Y-131384481D01*
X129693373Y-131377963D01*
X129523534Y-131326443D01*
X129367009Y-131242778D01*
X129302520Y-131189853D01*
X129229814Y-131130186D01*
X129146552Y-131028729D01*
X129117222Y-130992991D01*
X129033557Y-130836466D01*
X128982037Y-130666627D01*
X128964641Y-130490000D01*
X128982037Y-130313373D01*
X129033557Y-130143534D01*
X129117222Y-129987009D01*
X129146552Y-129951271D01*
X129229814Y-129849814D01*
X129331271Y-129766552D01*
X129367009Y-129737222D01*
X129523534Y-129653557D01*
X129693373Y-129602037D01*
X129759557Y-129595519D01*
X129825740Y-129589000D01*
X129914260Y-129589000D01*
X129980443Y-129595519D01*
X129980443Y-129595519D01*
G37*
G36*
X132523512Y-129593927D02*
G01*
X132672812Y-129623624D01*
X132836784Y-129691544D01*
X132984354Y-129790147D01*
X133109853Y-129915646D01*
X133208456Y-130063216D01*
X133276376Y-130227188D01*
X133311000Y-130401259D01*
X133311000Y-130578741D01*
X133276376Y-130752812D01*
X133208456Y-130916784D01*
X133109853Y-131064354D01*
X132984354Y-131189853D01*
X132836784Y-131288456D01*
X132672812Y-131356376D01*
X132523512Y-131386073D01*
X132498742Y-131391000D01*
X132321258Y-131391000D01*
X132296488Y-131386073D01*
X132147188Y-131356376D01*
X131983216Y-131288456D01*
X131835646Y-131189853D01*
X131710147Y-131064354D01*
X131611544Y-130916784D01*
X131543624Y-130752812D01*
X131509000Y-130578741D01*
X131509000Y-130401259D01*
X131543624Y-130227188D01*
X131611544Y-130063216D01*
X131710147Y-129915646D01*
X131835646Y-129790147D01*
X131983216Y-129691544D01*
X132147188Y-129623624D01*
X132296488Y-129593927D01*
X132321258Y-129589000D01*
X132498742Y-129589000D01*
X132523512Y-129593927D01*
X132523512Y-129593927D01*
G37*
G36*
X136750443Y-129595519D02*
G01*
X136816627Y-129602037D01*
X136986466Y-129653557D01*
X137142991Y-129737222D01*
X137178729Y-129766552D01*
X137280186Y-129849814D01*
X137363448Y-129951271D01*
X137392778Y-129987009D01*
X137476443Y-130143534D01*
X137527963Y-130313373D01*
X137545359Y-130490000D01*
X137527963Y-130666627D01*
X137476443Y-130836466D01*
X137392778Y-130992991D01*
X137363448Y-131028729D01*
X137280186Y-131130186D01*
X137207480Y-131189853D01*
X137142991Y-131242778D01*
X136986466Y-131326443D01*
X136816627Y-131377963D01*
X136750443Y-131384481D01*
X136684260Y-131391000D01*
X136595740Y-131391000D01*
X136529557Y-131384481D01*
X136463373Y-131377963D01*
X136293534Y-131326443D01*
X136137009Y-131242778D01*
X136072520Y-131189853D01*
X135999814Y-131130186D01*
X135916552Y-131028729D01*
X135887222Y-130992991D01*
X135803557Y-130836466D01*
X135752037Y-130666627D01*
X135734641Y-130490000D01*
X135752037Y-130313373D01*
X135803557Y-130143534D01*
X135887222Y-129987009D01*
X135916552Y-129951271D01*
X135999814Y-129849814D01*
X136101271Y-129766552D01*
X136137009Y-129737222D01*
X136293534Y-129653557D01*
X136463373Y-129602037D01*
X136529557Y-129595519D01*
X136595740Y-129589000D01*
X136684260Y-129589000D01*
X136750443Y-129595519D01*
X136750443Y-129595519D01*
G37*
G36*
X139293512Y-129593927D02*
G01*
X139442812Y-129623624D01*
X139606784Y-129691544D01*
X139754354Y-129790147D01*
X139879853Y-129915646D01*
X139978456Y-130063216D01*
X140046376Y-130227188D01*
X140081000Y-130401259D01*
X140081000Y-130578741D01*
X140046376Y-130752812D01*
X139978456Y-130916784D01*
X139879853Y-131064354D01*
X139754354Y-131189853D01*
X139606784Y-131288456D01*
X139442812Y-131356376D01*
X139293512Y-131386073D01*
X139268742Y-131391000D01*
X139091258Y-131391000D01*
X139066488Y-131386073D01*
X138917188Y-131356376D01*
X138753216Y-131288456D01*
X138605646Y-131189853D01*
X138480147Y-131064354D01*
X138381544Y-130916784D01*
X138313624Y-130752812D01*
X138279000Y-130578741D01*
X138279000Y-130401259D01*
X138313624Y-130227188D01*
X138381544Y-130063216D01*
X138480147Y-129915646D01*
X138605646Y-129790147D01*
X138753216Y-129691544D01*
X138917188Y-129623624D01*
X139066488Y-129593927D01*
X139091258Y-129589000D01*
X139268742Y-129589000D01*
X139293512Y-129593927D01*
X139293512Y-129593927D01*
G37*
G36*
X145893512Y-129593927D02*
G01*
X146042812Y-129623624D01*
X146206784Y-129691544D01*
X146354354Y-129790147D01*
X146479853Y-129915646D01*
X146578456Y-130063216D01*
X146646376Y-130227188D01*
X146681000Y-130401259D01*
X146681000Y-130578741D01*
X146646376Y-130752812D01*
X146578456Y-130916784D01*
X146479853Y-131064354D01*
X146354354Y-131189853D01*
X146206784Y-131288456D01*
X146042812Y-131356376D01*
X145893512Y-131386073D01*
X145868742Y-131391000D01*
X145691258Y-131391000D01*
X145666488Y-131386073D01*
X145517188Y-131356376D01*
X145353216Y-131288456D01*
X145205646Y-131189853D01*
X145080147Y-131064354D01*
X144981544Y-130916784D01*
X144913624Y-130752812D01*
X144879000Y-130578741D01*
X144879000Y-130401259D01*
X144913624Y-130227188D01*
X144981544Y-130063216D01*
X145080147Y-129915646D01*
X145205646Y-129790147D01*
X145353216Y-129691544D01*
X145517188Y-129623624D01*
X145666488Y-129593927D01*
X145691258Y-129589000D01*
X145868742Y-129589000D01*
X145893512Y-129593927D01*
X145893512Y-129593927D01*
G37*
G36*
X143350443Y-129595519D02*
G01*
X143416627Y-129602037D01*
X143586466Y-129653557D01*
X143742991Y-129737222D01*
X143778729Y-129766552D01*
X143880186Y-129849814D01*
X143963448Y-129951271D01*
X143992778Y-129987009D01*
X144076443Y-130143534D01*
X144127963Y-130313373D01*
X144145359Y-130490000D01*
X144127963Y-130666627D01*
X144076443Y-130836466D01*
X143992778Y-130992991D01*
X143963448Y-131028729D01*
X143880186Y-131130186D01*
X143807480Y-131189853D01*
X143742991Y-131242778D01*
X143586466Y-131326443D01*
X143416627Y-131377963D01*
X143350443Y-131384481D01*
X143284260Y-131391000D01*
X143195740Y-131391000D01*
X143129557Y-131384481D01*
X143063373Y-131377963D01*
X142893534Y-131326443D01*
X142737009Y-131242778D01*
X142672520Y-131189853D01*
X142599814Y-131130186D01*
X142516552Y-131028729D01*
X142487222Y-130992991D01*
X142403557Y-130836466D01*
X142352037Y-130666627D01*
X142334641Y-130490000D01*
X142352037Y-130313373D01*
X142403557Y-130143534D01*
X142487222Y-129987009D01*
X142516552Y-129951271D01*
X142599814Y-129849814D01*
X142701271Y-129766552D01*
X142737009Y-129737222D01*
X142893534Y-129653557D01*
X143063373Y-129602037D01*
X143129557Y-129595519D01*
X143195740Y-129589000D01*
X143284260Y-129589000D01*
X143350443Y-129595519D01*
X143350443Y-129595519D01*
G37*
G36*
X149900443Y-129595519D02*
G01*
X149966627Y-129602037D01*
X150136466Y-129653557D01*
X150292991Y-129737222D01*
X150328729Y-129766552D01*
X150430186Y-129849814D01*
X150513448Y-129951271D01*
X150542778Y-129987009D01*
X150626443Y-130143534D01*
X150677963Y-130313373D01*
X150695359Y-130490000D01*
X150677963Y-130666627D01*
X150626443Y-130836466D01*
X150542778Y-130992991D01*
X150513448Y-131028729D01*
X150430186Y-131130186D01*
X150357480Y-131189853D01*
X150292991Y-131242778D01*
X150136466Y-131326443D01*
X149966627Y-131377963D01*
X149900443Y-131384481D01*
X149834260Y-131391000D01*
X149745740Y-131391000D01*
X149679557Y-131384481D01*
X149613373Y-131377963D01*
X149443534Y-131326443D01*
X149287009Y-131242778D01*
X149222520Y-131189853D01*
X149149814Y-131130186D01*
X149066552Y-131028729D01*
X149037222Y-130992991D01*
X148953557Y-130836466D01*
X148902037Y-130666627D01*
X148884641Y-130490000D01*
X148902037Y-130313373D01*
X148953557Y-130143534D01*
X149037222Y-129987009D01*
X149066552Y-129951271D01*
X149149814Y-129849814D01*
X149251271Y-129766552D01*
X149287009Y-129737222D01*
X149443534Y-129653557D01*
X149613373Y-129602037D01*
X149679557Y-129595519D01*
X149745740Y-129589000D01*
X149834260Y-129589000D01*
X149900443Y-129595519D01*
X149900443Y-129595519D01*
G37*
G36*
X152443512Y-129593927D02*
G01*
X152592812Y-129623624D01*
X152756784Y-129691544D01*
X152904354Y-129790147D01*
X153029853Y-129915646D01*
X153128456Y-130063216D01*
X153196376Y-130227188D01*
X153231000Y-130401259D01*
X153231000Y-130578741D01*
X153196376Y-130752812D01*
X153128456Y-130916784D01*
X153029853Y-131064354D01*
X152904354Y-131189853D01*
X152756784Y-131288456D01*
X152592812Y-131356376D01*
X152443512Y-131386073D01*
X152418742Y-131391000D01*
X152241258Y-131391000D01*
X152216488Y-131386073D01*
X152067188Y-131356376D01*
X151903216Y-131288456D01*
X151755646Y-131189853D01*
X151630147Y-131064354D01*
X151531544Y-130916784D01*
X151463624Y-130752812D01*
X151429000Y-130578741D01*
X151429000Y-130401259D01*
X151463624Y-130227188D01*
X151531544Y-130063216D01*
X151630147Y-129915646D01*
X151755646Y-129790147D01*
X151903216Y-129691544D01*
X152067188Y-129623624D01*
X152216488Y-129593927D01*
X152241258Y-129589000D01*
X152418742Y-129589000D01*
X152443512Y-129593927D01*
X152443512Y-129593927D01*
G37*
G36*
X158933512Y-129573927D02*
G01*
X159082812Y-129603624D01*
X159246784Y-129671544D01*
X159394354Y-129770147D01*
X159519853Y-129895646D01*
X159618456Y-130043216D01*
X159686376Y-130207188D01*
X159721000Y-130381259D01*
X159721000Y-130558741D01*
X159686376Y-130732812D01*
X159618456Y-130896784D01*
X159519853Y-131044354D01*
X159394354Y-131169853D01*
X159246784Y-131268456D01*
X159082812Y-131336376D01*
X158933512Y-131366073D01*
X158908742Y-131371000D01*
X158731258Y-131371000D01*
X158706488Y-131366073D01*
X158557188Y-131336376D01*
X158393216Y-131268456D01*
X158245646Y-131169853D01*
X158120147Y-131044354D01*
X158021544Y-130896784D01*
X157953624Y-130732812D01*
X157919000Y-130558741D01*
X157919000Y-130381259D01*
X157953624Y-130207188D01*
X158021544Y-130043216D01*
X158120147Y-129895646D01*
X158245646Y-129770147D01*
X158393216Y-129671544D01*
X158557188Y-129603624D01*
X158706488Y-129573927D01*
X158731258Y-129569000D01*
X158908742Y-129569000D01*
X158933512Y-129573927D01*
X158933512Y-129573927D01*
G37*
G36*
X156390442Y-129575518D02*
G01*
X156456627Y-129582037D01*
X156626466Y-129633557D01*
X156782991Y-129717222D01*
X156807361Y-129737222D01*
X156920186Y-129829814D01*
X156990625Y-129915646D01*
X157032778Y-129967009D01*
X157116443Y-130123534D01*
X157167963Y-130293373D01*
X157185359Y-130470000D01*
X157167963Y-130646627D01*
X157116443Y-130816466D01*
X157032778Y-130972991D01*
X157016366Y-130992989D01*
X156920186Y-131110186D01*
X156847480Y-131169853D01*
X156782991Y-131222778D01*
X156626466Y-131306443D01*
X156456627Y-131357963D01*
X156390442Y-131364482D01*
X156324260Y-131371000D01*
X156235740Y-131371000D01*
X156169558Y-131364482D01*
X156103373Y-131357963D01*
X155933534Y-131306443D01*
X155777009Y-131222778D01*
X155712520Y-131169853D01*
X155639814Y-131110186D01*
X155543634Y-130992989D01*
X155527222Y-130972991D01*
X155443557Y-130816466D01*
X155392037Y-130646627D01*
X155374641Y-130470000D01*
X155392037Y-130293373D01*
X155443557Y-130123534D01*
X155527222Y-129967009D01*
X155569375Y-129915646D01*
X155639814Y-129829814D01*
X155752639Y-129737222D01*
X155777009Y-129717222D01*
X155933534Y-129633557D01*
X156103373Y-129582037D01*
X156169558Y-129575518D01*
X156235740Y-129569000D01*
X156324260Y-129569000D01*
X156390442Y-129575518D01*
X156390442Y-129575518D01*
G37*
G36*
X156442585Y-123548802D02*
G01*
X156592410Y-123578604D01*
X156874674Y-123695521D01*
X157128705Y-123865259D01*
X157344741Y-124081295D01*
X157514479Y-124335326D01*
X157606308Y-124557023D01*
X157631396Y-124617591D01*
X157691000Y-124917239D01*
X157691000Y-125222761D01*
X157680410Y-125276000D01*
X157631396Y-125522410D01*
X157514479Y-125804674D01*
X157344741Y-126058705D01*
X157128705Y-126274741D01*
X156874674Y-126444479D01*
X156592410Y-126561396D01*
X156442585Y-126591198D01*
X156292761Y-126621000D01*
X155987239Y-126621000D01*
X155837415Y-126591198D01*
X155687590Y-126561396D01*
X155405326Y-126444479D01*
X155151295Y-126274741D01*
X154935259Y-126058705D01*
X154765521Y-125804674D01*
X154648604Y-125522410D01*
X154599590Y-125276000D01*
X154589000Y-125222761D01*
X154589000Y-124917239D01*
X154648604Y-124617591D01*
X154673692Y-124557023D01*
X154765521Y-124335326D01*
X154935259Y-124081295D01*
X155151295Y-123865259D01*
X155405326Y-123695521D01*
X155687590Y-123578604D01*
X155837415Y-123548802D01*
X155987239Y-123519000D01*
X156292761Y-123519000D01*
X156442585Y-123548802D01*
X156442585Y-123548802D01*
G37*
G36*
X144159468Y-124233565D02*
G01*
X144198138Y-124245296D01*
X144233777Y-124264346D01*
X144265017Y-124289983D01*
X144290654Y-124321223D01*
X144309704Y-124356862D01*
X144321435Y-124395532D01*
X144326000Y-124441888D01*
X144326000Y-125518112D01*
X144321435Y-125564468D01*
X144309704Y-125603138D01*
X144290654Y-125638777D01*
X144265017Y-125670017D01*
X144233777Y-125695654D01*
X144198138Y-125714704D01*
X144159468Y-125726435D01*
X144113112Y-125731000D01*
X143461888Y-125731000D01*
X143415532Y-125726435D01*
X143376862Y-125714704D01*
X143341223Y-125695654D01*
X143309983Y-125670017D01*
X143284346Y-125638777D01*
X143265296Y-125603138D01*
X143253565Y-125564468D01*
X143249000Y-125518112D01*
X143249000Y-124441888D01*
X143253565Y-124395532D01*
X143265296Y-124356862D01*
X143284346Y-124321223D01*
X143309983Y-124289983D01*
X143341223Y-124264346D01*
X143376862Y-124245296D01*
X143415532Y-124233565D01*
X143461888Y-124229000D01*
X144113112Y-124229000D01*
X144159468Y-124233565D01*
X144159468Y-124233565D01*
G37*
G36*
X142284468Y-124233565D02*
G01*
X142323138Y-124245296D01*
X142358777Y-124264346D01*
X142390017Y-124289983D01*
X142415654Y-124321223D01*
X142434704Y-124356862D01*
X142446435Y-124395532D01*
X142451000Y-124441888D01*
X142451000Y-125518112D01*
X142446435Y-125564468D01*
X142434704Y-125603138D01*
X142415654Y-125638777D01*
X142390017Y-125670017D01*
X142358777Y-125695654D01*
X142323138Y-125714704D01*
X142284468Y-125726435D01*
X142238112Y-125731000D01*
X141586888Y-125731000D01*
X141540532Y-125726435D01*
X141501862Y-125714704D01*
X141466223Y-125695654D01*
X141434983Y-125670017D01*
X141409346Y-125638777D01*
X141390296Y-125603138D01*
X141378565Y-125564468D01*
X141374000Y-125518112D01*
X141374000Y-124441888D01*
X141378565Y-124395532D01*
X141390296Y-124356862D01*
X141409346Y-124321223D01*
X141434983Y-124289983D01*
X141466223Y-124264346D01*
X141501862Y-124245296D01*
X141540532Y-124233565D01*
X141586888Y-124229000D01*
X142238112Y-124229000D01*
X142284468Y-124233565D01*
X142284468Y-124233565D01*
G37*
G36*
X149919591Y-124303085D02*
G01*
X149953569Y-124313393D01*
X149984890Y-124330134D01*
X150012339Y-124352661D01*
X150034866Y-124380110D01*
X150051607Y-124411431D01*
X150061915Y-124445409D01*
X150066000Y-124486890D01*
X150066000Y-125088110D01*
X150061915Y-125129591D01*
X150051607Y-125163569D01*
X150034866Y-125194890D01*
X150012339Y-125222339D01*
X149984890Y-125244866D01*
X149953569Y-125261607D01*
X149919591Y-125271915D01*
X149878110Y-125276000D01*
X149201890Y-125276000D01*
X149160409Y-125271915D01*
X149126431Y-125261607D01*
X149095110Y-125244866D01*
X149067661Y-125222339D01*
X149045134Y-125194890D01*
X149028393Y-125163569D01*
X149018085Y-125129591D01*
X149014000Y-125088110D01*
X149014000Y-124486890D01*
X149018085Y-124445409D01*
X149028393Y-124411431D01*
X149045134Y-124380110D01*
X149067661Y-124352661D01*
X149095110Y-124330134D01*
X149126431Y-124313393D01*
X149160409Y-124303085D01*
X149201890Y-124299000D01*
X149878110Y-124299000D01*
X149919591Y-124303085D01*
X149919591Y-124303085D01*
G37*
G36*
X131888571Y-123602863D02*
G01*
X131967023Y-123610590D01*
X132029232Y-123629461D01*
X132118013Y-123656392D01*
X132257165Y-123730771D01*
X132379133Y-123830867D01*
X132479229Y-123952835D01*
X132553608Y-124091987D01*
X132557583Y-124105092D01*
X132599410Y-124242977D01*
X132614875Y-124400000D01*
X132599410Y-124557023D01*
X132581037Y-124617590D01*
X132553608Y-124708013D01*
X132479229Y-124847165D01*
X132379133Y-124969133D01*
X132257165Y-125069229D01*
X132118013Y-125143608D01*
X132067682Y-125158875D01*
X131967023Y-125189410D01*
X131911382Y-125194890D01*
X131849346Y-125201000D01*
X130270654Y-125201000D01*
X130208618Y-125194890D01*
X130152977Y-125189410D01*
X130052318Y-125158875D01*
X130001987Y-125143608D01*
X129862835Y-125069229D01*
X129740867Y-124969133D01*
X129640771Y-124847165D01*
X129566392Y-124708013D01*
X129538963Y-124617590D01*
X129520590Y-124557023D01*
X129505125Y-124400000D01*
X129520590Y-124242977D01*
X129562417Y-124105092D01*
X129566392Y-124091987D01*
X129640771Y-123952835D01*
X129740867Y-123830867D01*
X129862835Y-123730771D01*
X130001987Y-123656392D01*
X130090768Y-123629461D01*
X130152977Y-123610590D01*
X130231429Y-123602863D01*
X130270654Y-123599000D01*
X131849346Y-123599000D01*
X131888571Y-123602863D01*
X131888571Y-123602863D01*
G37*
G36*
X137839591Y-124090585D02*
G01*
X137873569Y-124100893D01*
X137904890Y-124117634D01*
X137932339Y-124140161D01*
X137954866Y-124167610D01*
X137971607Y-124198931D01*
X137981915Y-124232909D01*
X137986000Y-124274390D01*
X137986000Y-124875610D01*
X137981915Y-124917091D01*
X137971607Y-124951069D01*
X137954866Y-124982390D01*
X137932339Y-125009839D01*
X137904890Y-125032366D01*
X137873569Y-125049107D01*
X137839591Y-125059415D01*
X137798110Y-125063500D01*
X137121890Y-125063500D01*
X137080409Y-125059415D01*
X137046431Y-125049107D01*
X137015110Y-125032366D01*
X136987661Y-125009839D01*
X136965134Y-124982390D01*
X136948393Y-124951069D01*
X136938085Y-124917091D01*
X136934000Y-124875610D01*
X136934000Y-124274390D01*
X136938085Y-124232909D01*
X136948393Y-124198931D01*
X136965134Y-124167610D01*
X136987661Y-124140161D01*
X137015110Y-124117634D01*
X137046431Y-124100893D01*
X137080409Y-124090585D01*
X137121890Y-124086500D01*
X137798110Y-124086500D01*
X137839591Y-124090585D01*
X137839591Y-124090585D01*
G37*
G36*
X149919591Y-122728085D02*
G01*
X149953569Y-122738393D01*
X149984890Y-122755134D01*
X150012339Y-122777661D01*
X150034866Y-122805110D01*
X150051607Y-122836431D01*
X150061915Y-122870409D01*
X150066000Y-122911890D01*
X150066000Y-123513110D01*
X150061915Y-123554591D01*
X150051607Y-123588569D01*
X150034866Y-123619890D01*
X150012339Y-123647339D01*
X149984890Y-123669866D01*
X149953569Y-123686607D01*
X149919591Y-123696915D01*
X149878110Y-123701000D01*
X149201890Y-123701000D01*
X149160409Y-123696915D01*
X149126431Y-123686607D01*
X149095110Y-123669866D01*
X149067661Y-123647339D01*
X149045134Y-123619890D01*
X149028393Y-123588569D01*
X149018085Y-123554591D01*
X149014000Y-123513110D01*
X149014000Y-122911890D01*
X149018085Y-122870409D01*
X149028393Y-122836431D01*
X149045134Y-122805110D01*
X149067661Y-122777661D01*
X149095110Y-122755134D01*
X149126431Y-122738393D01*
X149160409Y-122728085D01*
X149201890Y-122724000D01*
X149878110Y-122724000D01*
X149919591Y-122728085D01*
X149919591Y-122728085D01*
G37*
G36*
X137839591Y-122515585D02*
G01*
X137873569Y-122525893D01*
X137904890Y-122542634D01*
X137932339Y-122565161D01*
X137954866Y-122592610D01*
X137971607Y-122623931D01*
X137981915Y-122657909D01*
X137986000Y-122699390D01*
X137986000Y-123300610D01*
X137981915Y-123342091D01*
X137971607Y-123376069D01*
X137954866Y-123407390D01*
X137932339Y-123434839D01*
X137904890Y-123457366D01*
X137873569Y-123474107D01*
X137839591Y-123484415D01*
X137798110Y-123488500D01*
X137121890Y-123488500D01*
X137080409Y-123484415D01*
X137046431Y-123474107D01*
X137015110Y-123457366D01*
X136987661Y-123434839D01*
X136965134Y-123407390D01*
X136948393Y-123376069D01*
X136938085Y-123342091D01*
X136934000Y-123300610D01*
X136934000Y-122699390D01*
X136938085Y-122657909D01*
X136948393Y-122623931D01*
X136965134Y-122592610D01*
X136987661Y-122565161D01*
X137015110Y-122542634D01*
X137046431Y-122525893D01*
X137080409Y-122515585D01*
X137121890Y-122511500D01*
X137798110Y-122511500D01*
X137839591Y-122515585D01*
X137839591Y-122515585D01*
G37*
G36*
X153777142Y-121218242D02*
G01*
X153925101Y-121279529D01*
X154058255Y-121368499D01*
X154171501Y-121481745D01*
X154260471Y-121614899D01*
X154321758Y-121762858D01*
X154353000Y-121919925D01*
X154353000Y-122080075D01*
X154321758Y-122237142D01*
X154260471Y-122385101D01*
X154171501Y-122518255D01*
X154058255Y-122631501D01*
X153925101Y-122720471D01*
X153777142Y-122781758D01*
X153620075Y-122813000D01*
X153459925Y-122813000D01*
X153302858Y-122781758D01*
X153154899Y-122720471D01*
X153021745Y-122631501D01*
X152908499Y-122518255D01*
X152819529Y-122385101D01*
X152758242Y-122237142D01*
X152727000Y-122080075D01*
X152727000Y-121919925D01*
X152758242Y-121762858D01*
X152819529Y-121614899D01*
X152908499Y-121481745D01*
X153021745Y-121368499D01*
X153154899Y-121279529D01*
X153302858Y-121218242D01*
X153459925Y-121187000D01*
X153620075Y-121187000D01*
X153777142Y-121218242D01*
X153777142Y-121218242D01*
G37*
G36*
X133697142Y-121218242D02*
G01*
X133845101Y-121279529D01*
X133978255Y-121368499D01*
X134091501Y-121481745D01*
X134180471Y-121614899D01*
X134241758Y-121762858D01*
X134273000Y-121919925D01*
X134273000Y-122080075D01*
X134241758Y-122237142D01*
X134180471Y-122385101D01*
X134091501Y-122518255D01*
X133978255Y-122631501D01*
X133845101Y-122720471D01*
X133697142Y-122781758D01*
X133540075Y-122813000D01*
X133379925Y-122813000D01*
X133222858Y-122781758D01*
X133074899Y-122720471D01*
X132941745Y-122631501D01*
X132828499Y-122518255D01*
X132739529Y-122385101D01*
X132678242Y-122237142D01*
X132647000Y-122080075D01*
X132647000Y-121919925D01*
X132678242Y-121762858D01*
X132739529Y-121614899D01*
X132828499Y-121481745D01*
X132941745Y-121368499D01*
X133074899Y-121279529D01*
X133222858Y-121218242D01*
X133379925Y-121187000D01*
X133540075Y-121187000D01*
X133697142Y-121218242D01*
X133697142Y-121218242D01*
G37*
G36*
X147433512Y-119063927D02*
G01*
X147582812Y-119093624D01*
X147746784Y-119161544D01*
X147894354Y-119260147D01*
X148019853Y-119385646D01*
X148118456Y-119533216D01*
X148186376Y-119697188D01*
X148221000Y-119871259D01*
X148221000Y-120048741D01*
X148186376Y-120222812D01*
X148118456Y-120386784D01*
X148019853Y-120534354D01*
X147894354Y-120659853D01*
X147746784Y-120758456D01*
X147582812Y-120826376D01*
X147433512Y-120856073D01*
X147408742Y-120861000D01*
X147231258Y-120861000D01*
X147206488Y-120856073D01*
X147057188Y-120826376D01*
X146893216Y-120758456D01*
X146745646Y-120659853D01*
X146620147Y-120534354D01*
X146521544Y-120386784D01*
X146453624Y-120222812D01*
X146419000Y-120048741D01*
X146419000Y-119871259D01*
X146453624Y-119697188D01*
X146521544Y-119533216D01*
X146620147Y-119385646D01*
X146745646Y-119260147D01*
X146893216Y-119161544D01*
X147057188Y-119093624D01*
X147206488Y-119063927D01*
X147231258Y-119059000D01*
X147408742Y-119059000D01*
X147433512Y-119063927D01*
X147433512Y-119063927D01*
G37*
G36*
X138453512Y-119023927D02*
G01*
X138602812Y-119053624D01*
X138766784Y-119121544D01*
X138914354Y-119220147D01*
X139039853Y-119345646D01*
X139138456Y-119493216D01*
X139206376Y-119657188D01*
X139241000Y-119831259D01*
X139241000Y-120008741D01*
X139206376Y-120182812D01*
X139138456Y-120346784D01*
X139039853Y-120494354D01*
X138914354Y-120619853D01*
X138766784Y-120718456D01*
X138602812Y-120786376D01*
X138453512Y-120816073D01*
X138428742Y-120821000D01*
X138251258Y-120821000D01*
X138226488Y-120816073D01*
X138077188Y-120786376D01*
X137913216Y-120718456D01*
X137765646Y-120619853D01*
X137640147Y-120494354D01*
X137541544Y-120346784D01*
X137473624Y-120182812D01*
X137439000Y-120008741D01*
X137439000Y-119831259D01*
X137473624Y-119657188D01*
X137541544Y-119493216D01*
X137640147Y-119345646D01*
X137765646Y-119220147D01*
X137913216Y-119121544D01*
X138077188Y-119053624D01*
X138226488Y-119023927D01*
X138251258Y-119019000D01*
X138428742Y-119019000D01*
X138453512Y-119023927D01*
X138453512Y-119023927D01*
G37*
G36*
X133697142Y-118718242D02*
G01*
X133845101Y-118779529D01*
X133978255Y-118868499D01*
X134091501Y-118981745D01*
X134180471Y-119114899D01*
X134241758Y-119262858D01*
X134273000Y-119419925D01*
X134273000Y-119580075D01*
X134241758Y-119737142D01*
X134180471Y-119885101D01*
X134091501Y-120018255D01*
X133978255Y-120131501D01*
X133845101Y-120220471D01*
X133697142Y-120281758D01*
X133540075Y-120313000D01*
X133379925Y-120313000D01*
X133222858Y-120281758D01*
X133074899Y-120220471D01*
X132941745Y-120131501D01*
X132828499Y-120018255D01*
X132739529Y-119885101D01*
X132678242Y-119737142D01*
X132647000Y-119580075D01*
X132647000Y-119419925D01*
X132678242Y-119262858D01*
X132739529Y-119114899D01*
X132828499Y-118981745D01*
X132941745Y-118868499D01*
X133074899Y-118779529D01*
X133222858Y-118718242D01*
X133379925Y-118687000D01*
X133540075Y-118687000D01*
X133697142Y-118718242D01*
X133697142Y-118718242D01*
G37*
G36*
X153777142Y-118718242D02*
G01*
X153925101Y-118779529D01*
X154058255Y-118868499D01*
X154171501Y-118981745D01*
X154260471Y-119114899D01*
X154321758Y-119262858D01*
X154353000Y-119419925D01*
X154353000Y-119580075D01*
X154321758Y-119737142D01*
X154260471Y-119885101D01*
X154171501Y-120018255D01*
X154058255Y-120131501D01*
X153925101Y-120220471D01*
X153777142Y-120281758D01*
X153620075Y-120313000D01*
X153459925Y-120313000D01*
X153302858Y-120281758D01*
X153154899Y-120220471D01*
X153021745Y-120131501D01*
X152908499Y-120018255D01*
X152819529Y-119885101D01*
X152758242Y-119737142D01*
X152727000Y-119580075D01*
X152727000Y-119419925D01*
X152758242Y-119262858D01*
X152819529Y-119114899D01*
X152908499Y-118981745D01*
X153021745Y-118868499D01*
X153154899Y-118779529D01*
X153302858Y-118718242D01*
X153459925Y-118687000D01*
X153620075Y-118687000D01*
X153777142Y-118718242D01*
X153777142Y-118718242D01*
G37*
G36*
X147430442Y-116525518D02*
G01*
X147496627Y-116532037D01*
X147666466Y-116583557D01*
X147822991Y-116667222D01*
X147847090Y-116687000D01*
X147960186Y-116779814D01*
X148032967Y-116868499D01*
X148072778Y-116917009D01*
X148156443Y-117073534D01*
X148207963Y-117243373D01*
X148225359Y-117420000D01*
X148207963Y-117596627D01*
X148156443Y-117766466D01*
X148072778Y-117922991D01*
X148043448Y-117958729D01*
X147960186Y-118060186D01*
X147873287Y-118131501D01*
X147822991Y-118172778D01*
X147666466Y-118256443D01*
X147496627Y-118307963D01*
X147430442Y-118314482D01*
X147364260Y-118321000D01*
X147275740Y-118321000D01*
X147209558Y-118314482D01*
X147143373Y-118307963D01*
X146973534Y-118256443D01*
X146817009Y-118172778D01*
X146766713Y-118131501D01*
X146679814Y-118060186D01*
X146596552Y-117958729D01*
X146567222Y-117922991D01*
X146483557Y-117766466D01*
X146432037Y-117596627D01*
X146414641Y-117420000D01*
X146432037Y-117243373D01*
X146483557Y-117073534D01*
X146567222Y-116917009D01*
X146607033Y-116868499D01*
X146679814Y-116779814D01*
X146792910Y-116687000D01*
X146817009Y-116667222D01*
X146973534Y-116583557D01*
X147143373Y-116532037D01*
X147209558Y-116525518D01*
X147275740Y-116519000D01*
X147364260Y-116519000D01*
X147430442Y-116525518D01*
X147430442Y-116525518D01*
G37*
G36*
X133697142Y-116718242D02*
G01*
X133845101Y-116779529D01*
X133978255Y-116868499D01*
X134091501Y-116981745D01*
X134180471Y-117114899D01*
X134241758Y-117262858D01*
X134273000Y-117419925D01*
X134273000Y-117580075D01*
X134241758Y-117737142D01*
X134180471Y-117885101D01*
X134091501Y-118018255D01*
X133978255Y-118131501D01*
X133845101Y-118220471D01*
X133697142Y-118281758D01*
X133540075Y-118313000D01*
X133379925Y-118313000D01*
X133222858Y-118281758D01*
X133074899Y-118220471D01*
X132941745Y-118131501D01*
X132828499Y-118018255D01*
X132739529Y-117885101D01*
X132678242Y-117737142D01*
X132647000Y-117580075D01*
X132647000Y-117419925D01*
X132678242Y-117262858D01*
X132739529Y-117114899D01*
X132828499Y-116981745D01*
X132941745Y-116868499D01*
X133074899Y-116779529D01*
X133222858Y-116718242D01*
X133379925Y-116687000D01*
X133540075Y-116687000D01*
X133697142Y-116718242D01*
X133697142Y-116718242D01*
G37*
G36*
X153777142Y-116718242D02*
G01*
X153925101Y-116779529D01*
X154058255Y-116868499D01*
X154171501Y-116981745D01*
X154260471Y-117114899D01*
X154321758Y-117262858D01*
X154353000Y-117419925D01*
X154353000Y-117580075D01*
X154321758Y-117737142D01*
X154260471Y-117885101D01*
X154171501Y-118018255D01*
X154058255Y-118131501D01*
X153925101Y-118220471D01*
X153777142Y-118281758D01*
X153620075Y-118313000D01*
X153459925Y-118313000D01*
X153302858Y-118281758D01*
X153154899Y-118220471D01*
X153021745Y-118131501D01*
X152908499Y-118018255D01*
X152819529Y-117885101D01*
X152758242Y-117737142D01*
X152727000Y-117580075D01*
X152727000Y-117419925D01*
X152758242Y-117262858D01*
X152819529Y-117114899D01*
X152908499Y-116981745D01*
X153021745Y-116868499D01*
X153154899Y-116779529D01*
X153302858Y-116718242D01*
X153459925Y-116687000D01*
X153620075Y-116687000D01*
X153777142Y-116718242D01*
X153777142Y-116718242D01*
G37*
G36*
X138450443Y-116485519D02*
G01*
X138516627Y-116492037D01*
X138686466Y-116543557D01*
X138842991Y-116627222D01*
X138878729Y-116656552D01*
X138980186Y-116739814D01*
X139063448Y-116841271D01*
X139092778Y-116877009D01*
X139176443Y-117033534D01*
X139227963Y-117203373D01*
X139245359Y-117380000D01*
X139227963Y-117556627D01*
X139176443Y-117726466D01*
X139092778Y-117882991D01*
X139091047Y-117885100D01*
X138980186Y-118020186D01*
X138878729Y-118103448D01*
X138842991Y-118132778D01*
X138686466Y-118216443D01*
X138516627Y-118267963D01*
X138450442Y-118274482D01*
X138384260Y-118281000D01*
X138295740Y-118281000D01*
X138229558Y-118274482D01*
X138163373Y-118267963D01*
X137993534Y-118216443D01*
X137837009Y-118132778D01*
X137801271Y-118103448D01*
X137699814Y-118020186D01*
X137588953Y-117885100D01*
X137587222Y-117882991D01*
X137503557Y-117726466D01*
X137452037Y-117556627D01*
X137434641Y-117380000D01*
X137452037Y-117203373D01*
X137503557Y-117033534D01*
X137587222Y-116877009D01*
X137616552Y-116841271D01*
X137699814Y-116739814D01*
X137801271Y-116656552D01*
X137837009Y-116627222D01*
X137993534Y-116543557D01*
X138163373Y-116492037D01*
X138229557Y-116485519D01*
X138295740Y-116479000D01*
X138384260Y-116479000D01*
X138450443Y-116485519D01*
X138450443Y-116485519D01*
G37*
G36*
X133697142Y-114218242D02*
G01*
X133845101Y-114279529D01*
X133978255Y-114368499D01*
X134091501Y-114481745D01*
X134180471Y-114614899D01*
X134241758Y-114762858D01*
X134273000Y-114919925D01*
X134273000Y-115080075D01*
X134241758Y-115237142D01*
X134180471Y-115385101D01*
X134091501Y-115518255D01*
X133978255Y-115631501D01*
X133845101Y-115720471D01*
X133697142Y-115781758D01*
X133540075Y-115813000D01*
X133379925Y-115813000D01*
X133222858Y-115781758D01*
X133074899Y-115720471D01*
X132941745Y-115631501D01*
X132828499Y-115518255D01*
X132739529Y-115385101D01*
X132678242Y-115237142D01*
X132647000Y-115080075D01*
X132647000Y-114919925D01*
X132678242Y-114762858D01*
X132739529Y-114614899D01*
X132828499Y-114481745D01*
X132941745Y-114368499D01*
X133074899Y-114279529D01*
X133222858Y-114218242D01*
X133379925Y-114187000D01*
X133540075Y-114187000D01*
X133697142Y-114218242D01*
X133697142Y-114218242D01*
G37*
G36*
X153777142Y-114218242D02*
G01*
X153925101Y-114279529D01*
X154058255Y-114368499D01*
X154171501Y-114481745D01*
X154260471Y-114614899D01*
X154321758Y-114762858D01*
X154353000Y-114919925D01*
X154353000Y-115080075D01*
X154321758Y-115237142D01*
X154260471Y-115385101D01*
X154171501Y-115518255D01*
X154058255Y-115631501D01*
X153925101Y-115720471D01*
X153777142Y-115781758D01*
X153620075Y-115813000D01*
X153459925Y-115813000D01*
X153302858Y-115781758D01*
X153154899Y-115720471D01*
X153021745Y-115631501D01*
X152908499Y-115518255D01*
X152819529Y-115385101D01*
X152758242Y-115237142D01*
X152727000Y-115080075D01*
X152727000Y-114919925D01*
X152758242Y-114762858D01*
X152819529Y-114614899D01*
X152908499Y-114481745D01*
X153021745Y-114368499D01*
X153154899Y-114279529D01*
X153302858Y-114218242D01*
X153459925Y-114187000D01*
X153620075Y-114187000D01*
X153777142Y-114218242D01*
X153777142Y-114218242D01*
G37*
G36*
X144129468Y-113723565D02*
G01*
X144168138Y-113735296D01*
X144203777Y-113754346D01*
X144235017Y-113779983D01*
X144260654Y-113811223D01*
X144279704Y-113846862D01*
X144291435Y-113885532D01*
X144296000Y-113931888D01*
X144296000Y-115008112D01*
X144291435Y-115054468D01*
X144279704Y-115093138D01*
X144260654Y-115128777D01*
X144235017Y-115160017D01*
X144203777Y-115185654D01*
X144168138Y-115204704D01*
X144129468Y-115216435D01*
X144083112Y-115221000D01*
X143431888Y-115221000D01*
X143385532Y-115216435D01*
X143346862Y-115204704D01*
X143311223Y-115185654D01*
X143279983Y-115160017D01*
X143254346Y-115128777D01*
X143235296Y-115093138D01*
X143223565Y-115054468D01*
X143219000Y-115008112D01*
X143219000Y-113931888D01*
X143223565Y-113885532D01*
X143235296Y-113846862D01*
X143254346Y-113811223D01*
X143279983Y-113779983D01*
X143311223Y-113754346D01*
X143346862Y-113735296D01*
X143385532Y-113723565D01*
X143431888Y-113719000D01*
X144083112Y-113719000D01*
X144129468Y-113723565D01*
X144129468Y-113723565D01*
G37*
G36*
X142254468Y-113723565D02*
G01*
X142293138Y-113735296D01*
X142328777Y-113754346D01*
X142360017Y-113779983D01*
X142385654Y-113811223D01*
X142404704Y-113846862D01*
X142416435Y-113885532D01*
X142421000Y-113931888D01*
X142421000Y-115008112D01*
X142416435Y-115054468D01*
X142404704Y-115093138D01*
X142385654Y-115128777D01*
X142360017Y-115160017D01*
X142328777Y-115185654D01*
X142293138Y-115204704D01*
X142254468Y-115216435D01*
X142208112Y-115221000D01*
X141556888Y-115221000D01*
X141510532Y-115216435D01*
X141471862Y-115204704D01*
X141436223Y-115185654D01*
X141404983Y-115160017D01*
X141379346Y-115128777D01*
X141360296Y-115093138D01*
X141348565Y-115054468D01*
X141344000Y-115008112D01*
X141344000Y-113931888D01*
X141348565Y-113885532D01*
X141360296Y-113846862D01*
X141379346Y-113811223D01*
X141404983Y-113779983D01*
X141436223Y-113754346D01*
X141471862Y-113735296D01*
X141510532Y-113723565D01*
X141556888Y-113719000D01*
X142208112Y-113719000D01*
X142254468Y-113723565D01*
X142254468Y-113723565D01*
G37*
G36*
X137879591Y-113303085D02*
G01*
X137913569Y-113313393D01*
X137944890Y-113330134D01*
X137972339Y-113352661D01*
X137994866Y-113380110D01*
X138011607Y-113411431D01*
X138021915Y-113445409D01*
X138026000Y-113486890D01*
X138026000Y-114088110D01*
X138021915Y-114129591D01*
X138011607Y-114163569D01*
X137994866Y-114194890D01*
X137972339Y-114222339D01*
X137944890Y-114244866D01*
X137913569Y-114261607D01*
X137879591Y-114271915D01*
X137838110Y-114276000D01*
X137161890Y-114276000D01*
X137120409Y-114271915D01*
X137086431Y-114261607D01*
X137055110Y-114244866D01*
X137027661Y-114222339D01*
X137005134Y-114194890D01*
X136988393Y-114163569D01*
X136978085Y-114129591D01*
X136974000Y-114088110D01*
X136974000Y-113486890D01*
X136978085Y-113445409D01*
X136988393Y-113411431D01*
X137005134Y-113380110D01*
X137027661Y-113352661D01*
X137055110Y-113330134D01*
X137086431Y-113313393D01*
X137120409Y-113303085D01*
X137161890Y-113299000D01*
X137838110Y-113299000D01*
X137879591Y-113303085D01*
X137879591Y-113303085D01*
G37*
G36*
X139879591Y-113303085D02*
G01*
X139913569Y-113313393D01*
X139944890Y-113330134D01*
X139972339Y-113352661D01*
X139994866Y-113380110D01*
X140011607Y-113411431D01*
X140021915Y-113445409D01*
X140026000Y-113486890D01*
X140026000Y-114088110D01*
X140021915Y-114129591D01*
X140011607Y-114163569D01*
X139994866Y-114194890D01*
X139972339Y-114222339D01*
X139944890Y-114244866D01*
X139913569Y-114261607D01*
X139879591Y-114271915D01*
X139838110Y-114276000D01*
X139161890Y-114276000D01*
X139120409Y-114271915D01*
X139086431Y-114261607D01*
X139055110Y-114244866D01*
X139027661Y-114222339D01*
X139005134Y-114194890D01*
X138988393Y-114163569D01*
X138978085Y-114129591D01*
X138974000Y-114088110D01*
X138974000Y-113486890D01*
X138978085Y-113445409D01*
X138988393Y-113411431D01*
X139005134Y-113380110D01*
X139027661Y-113352661D01*
X139055110Y-113330134D01*
X139086431Y-113313393D01*
X139120409Y-113303085D01*
X139161890Y-113299000D01*
X139838110Y-113299000D01*
X139879591Y-113303085D01*
X139879591Y-113303085D01*
G37*
G36*
X156442585Y-110408802D02*
G01*
X156592410Y-110438604D01*
X156874674Y-110555521D01*
X157128705Y-110725259D01*
X157344741Y-110941295D01*
X157514479Y-111195326D01*
X157631396Y-111477590D01*
X157631396Y-111477591D01*
X157681344Y-111728693D01*
X157691000Y-111777240D01*
X157691000Y-112082760D01*
X157631396Y-112382410D01*
X157514479Y-112664674D01*
X157344741Y-112918705D01*
X157128705Y-113134741D01*
X156874674Y-113304479D01*
X156592410Y-113421396D01*
X156471688Y-113445409D01*
X156292761Y-113481000D01*
X155987239Y-113481000D01*
X155808312Y-113445409D01*
X155687590Y-113421396D01*
X155405326Y-113304479D01*
X155151295Y-113134741D01*
X154935259Y-112918705D01*
X154765521Y-112664674D01*
X154648604Y-112382410D01*
X154589000Y-112082760D01*
X154589000Y-111777240D01*
X154598657Y-111728693D01*
X154648604Y-111477591D01*
X154648604Y-111477590D01*
X154765521Y-111195326D01*
X154935259Y-110941295D01*
X155151295Y-110725259D01*
X155405326Y-110555521D01*
X155687590Y-110438604D01*
X155837415Y-110408802D01*
X155987239Y-110379000D01*
X156292761Y-110379000D01*
X156442585Y-110408802D01*
X156442585Y-110408802D01*
G37*
G36*
X131888571Y-111802863D02*
G01*
X131967023Y-111810590D01*
X132052209Y-111836431D01*
X132118013Y-111856392D01*
X132257165Y-111930771D01*
X132379133Y-112030867D01*
X132479229Y-112152835D01*
X132553608Y-112291987D01*
X132553608Y-112291988D01*
X132599410Y-112442977D01*
X132614875Y-112600000D01*
X132599410Y-112757023D01*
X132568875Y-112857682D01*
X132553608Y-112908013D01*
X132479229Y-113047165D01*
X132379133Y-113169133D01*
X132257165Y-113269229D01*
X132118013Y-113343608D01*
X132067682Y-113358875D01*
X131967023Y-113389410D01*
X131888571Y-113397137D01*
X131849346Y-113401000D01*
X130270654Y-113401000D01*
X130231429Y-113397137D01*
X130152977Y-113389410D01*
X130052318Y-113358875D01*
X130001987Y-113343608D01*
X129862835Y-113269229D01*
X129740867Y-113169133D01*
X129640771Y-113047165D01*
X129566392Y-112908013D01*
X129551125Y-112857682D01*
X129520590Y-112757023D01*
X129505125Y-112600000D01*
X129520590Y-112442977D01*
X129566392Y-112291988D01*
X129566392Y-112291987D01*
X129640771Y-112152835D01*
X129740867Y-112030867D01*
X129862835Y-111930771D01*
X130001987Y-111856392D01*
X130067791Y-111836431D01*
X130152977Y-111810590D01*
X130231429Y-111802863D01*
X130270654Y-111799000D01*
X131849346Y-111799000D01*
X131888571Y-111802863D01*
X131888571Y-111802863D01*
G37*
G36*
X137879591Y-111728085D02*
G01*
X137913569Y-111738393D01*
X137944890Y-111755134D01*
X137972339Y-111777661D01*
X137994866Y-111805110D01*
X138011607Y-111836431D01*
X138021915Y-111870409D01*
X138026000Y-111911890D01*
X138026000Y-112513110D01*
X138021915Y-112554591D01*
X138011607Y-112588569D01*
X137994866Y-112619890D01*
X137972339Y-112647339D01*
X137944890Y-112669866D01*
X137913569Y-112686607D01*
X137879591Y-112696915D01*
X137838110Y-112701000D01*
X137161890Y-112701000D01*
X137120409Y-112696915D01*
X137086431Y-112686607D01*
X137055110Y-112669866D01*
X137027661Y-112647339D01*
X137005134Y-112619890D01*
X136988393Y-112588569D01*
X136978085Y-112554591D01*
X136974000Y-112513110D01*
X136974000Y-111911890D01*
X136978085Y-111870409D01*
X136988393Y-111836431D01*
X137005134Y-111805110D01*
X137027661Y-111777661D01*
X137055110Y-111755134D01*
X137086431Y-111738393D01*
X137120409Y-111728085D01*
X137161890Y-111724000D01*
X137838110Y-111724000D01*
X137879591Y-111728085D01*
X137879591Y-111728085D01*
G37*
G36*
X139879591Y-111728085D02*
G01*
X139913569Y-111738393D01*
X139944890Y-111755134D01*
X139972339Y-111777661D01*
X139994866Y-111805110D01*
X140011607Y-111836431D01*
X140021915Y-111870409D01*
X140026000Y-111911890D01*
X140026000Y-112513110D01*
X140021915Y-112554591D01*
X140011607Y-112588569D01*
X139994866Y-112619890D01*
X139972339Y-112647339D01*
X139944890Y-112669866D01*
X139913569Y-112686607D01*
X139879591Y-112696915D01*
X139838110Y-112701000D01*
X139161890Y-112701000D01*
X139120409Y-112696915D01*
X139086431Y-112686607D01*
X139055110Y-112669866D01*
X139027661Y-112647339D01*
X139005134Y-112619890D01*
X138988393Y-112588569D01*
X138978085Y-112554591D01*
X138974000Y-112513110D01*
X138974000Y-111911890D01*
X138978085Y-111870409D01*
X138988393Y-111836431D01*
X139005134Y-111805110D01*
X139027661Y-111777661D01*
X139055110Y-111755134D01*
X139086431Y-111738393D01*
X139120409Y-111728085D01*
X139161890Y-111724000D01*
X139838110Y-111724000D01*
X139879591Y-111728085D01*
X139879591Y-111728085D01*
G37*
M02*
