M48
; DRILL file {KiCad (5.1.2)-1} date 2024/04/02 23:01:10
; FORMAT={-:-/ absolute / metric / decimal}
; #@! TF.CreationDate,2024-04-02T23:01:10+09:00
; #@! TF.GenerationSoftware,Kicad,Pcbnew,(5.1.2)-1
FMAT,2
METRIC
T1C1.000
T2C1.200
T3C2.500
T4C0.600
T5C1.500
%
G90
G05
T1
X143.24Y-130.49
X145.78Y-130.49
X129.87Y-130.49
X132.41Y-130.49
X147.32Y-117.42
X147.32Y-119.96
X138.34Y-117.38
X138.34Y-119.92
X149.79Y-139.38
X152.33Y-139.38
X149.79Y-130.49
X152.33Y-130.49
X153.54Y-115.0
X153.54Y-117.5
X153.54Y-119.5
X153.54Y-122.0
X136.64Y-139.38
X139.18Y-139.38
X156.28Y-130.47
X158.82Y-130.47
X156.33Y-139.36
X158.87Y-139.36
X136.64Y-130.49
X139.18Y-130.49
X129.8Y-139.38
X132.34Y-139.38
X133.46Y-115.0
X133.46Y-117.5
X133.46Y-119.5
X133.46Y-122.0
X143.24Y-139.38
X145.78Y-139.38
T3
X156.14Y-111.93
X156.14Y-125.07
T4
X152.0Y-128.3
X131.0Y-128.3
X136.0Y-128.3
X147.8Y-133.0
X144.5Y-128.3
X141.2Y-136.0
X142.7Y-128.3
X157.6Y-128.3
X141.2Y-133.0
X141.2Y-137.0
X134.5Y-136.0
X145.4Y-128.3
X147.8Y-136.0
X134.5Y-133.0
X130.0Y-128.3
X137.0Y-128.3
X155.8Y-128.3
X138.8Y-128.3
X158.5Y-128.3
X154.31Y-136.01
X154.31Y-134.01
X139.7Y-128.3
X152.9Y-128.3
X147.8Y-135.0
X151.1Y-128.3
X141.2Y-134.0
X150.2Y-128.3
X134.5Y-134.0
X143.6Y-128.3
X154.3Y-135.01
X134.5Y-137.0
X146.3Y-128.3
X132.0Y-128.3
X129.0Y-128.3
X154.31Y-137.0
X137.9Y-128.3
X156.7Y-128.3
X154.3Y-133.01
X147.8Y-137.0
X159.4Y-128.3
X141.2Y-135.0
X134.5Y-135.0
X149.3Y-128.3
X147.8Y-134.0
X133.0Y-128.3
T5
X131.06Y-116.25
X131.06Y-120.75
T2
G00X130.41Y-112.6
M15
G01X131.71Y-112.6
M16
G05
G00X130.41Y-124.4
M15
G01X131.71Y-124.4
M16
G05
T0
M30
